<svg width="195" height="171" viewBox="0 0 195 171" fill="none" xmlns="http://www.w3.org/2000/svg">
<path d="M75.7922 22.4953C75.5671 22.4953 75.4545 22.4953 75.342 22.3828C74.6666 22.1578 74.329 21.3705 74.6666 20.6956C74.7792 20.4707 75.7922 18.2211 79.2813 15.0716C79.8441 14.6217 80.6319 14.6217 81.0822 15.1841C81.5324 15.7465 81.5324 16.5339 80.9696 16.9838C77.8181 19.6833 77.0303 21.5954 77.0303 21.5954C76.6926 22.2703 76.2424 22.4953 75.7922 22.4953Z" fill="#414042"/>
<path d="M81.1945 83.348C80.9694 83.348 80.6317 83.2356 80.4066 83.1231C63.4111 72.6625 64.6492 52.1912 66.7877 40.8307C66.9003 40.0434 67.8007 39.481 68.5885 39.5934C69.3764 39.7059 69.9392 40.6057 69.8266 41.3931C67.8007 51.8537 66.6751 70.9753 82.0949 80.4236C82.7702 80.8735 82.9953 81.7733 82.5451 82.5607C82.2074 83.1231 81.6447 83.348 81.1945 83.348Z" fill="#414042"/>
<path d="M96.7267 0C69.8266 0 47.9913 21.8211 47.9913 48.7037C47.9913 75.5864 69.8266 97.4074 96.7267 97.4074C123.627 97.4074 145.462 75.5864 145.462 48.7037C145.462 21.8211 123.627 0 96.7267 0ZM96.7267 94.3705C92.8999 94.3705 89.1857 93.9206 85.6965 93.0207C85.0212 91.8959 84.3459 90.6587 83.7831 89.4214C82.9953 87.6217 82.32 85.7096 81.9823 83.7974C82.8827 84.1348 83.7831 84.4723 84.6836 84.8097C89.861 86.3844 94.8133 87.0593 99.5405 87.0593C100.103 89.1964 101.229 91.5585 102.917 93.9206C100.891 94.1455 98.8652 94.3705 96.7267 94.3705ZM121.263 68.8376C122.276 71.1997 123.627 73.5618 125.315 75.6989C120.363 79.7481 112.034 83.235 102.129 83.7974C102.017 81.7728 102.242 79.7481 102.917 77.7235C105.731 69.7374 114.623 63.8885 121.263 62.9887C121.826 62.8762 122.389 62.8762 122.952 62.8762C125.203 62.8762 127.679 63.551 129.255 65.8006C130.83 68.1627 129.592 70.7497 128.242 72.6619C128.016 72.8869 127.791 73.2243 127.566 73.4493C126.216 71.5371 125.09 69.625 124.19 67.4878C123.852 66.7005 122.952 66.363 122.164 66.7005C121.263 67.1504 120.926 68.0502 121.263 68.8376ZM106.406 93.3582C104.718 91.3335 103.48 89.1964 102.805 87.0593C113.385 86.3844 122.051 82.5601 127.341 78.1734C128.016 78.9608 128.804 79.7481 129.592 80.423C123.402 86.8344 115.411 91.3335 106.406 93.3582ZM129.592 76.0363C130.042 75.5864 130.493 75.024 130.83 74.5741C133.532 70.9747 133.982 67.1504 131.956 64.1134C129.705 60.7391 125.765 59.2768 120.926 59.8392C113.272 60.8515 103.367 67.3754 100.103 76.5987C99.428 78.6233 98.8652 81.0979 99.0903 83.7974C94.8133 83.7974 90.1987 83.1225 85.6965 81.7728C84.2334 81.3228 82.8827 80.7604 81.6446 80.0856C81.1944 73.5617 83.2204 66.7005 87.6099 59.8392C92.7874 51.8532 94.9259 44.6545 96.7267 38.918C99.3154 30.482 100.891 25.4204 108.882 23.8457C121.601 21.3712 124.527 32.2817 124.64 32.7316C124.752 33.294 125.315 33.7439 125.878 33.8564C127.679 34.1938 130.267 35.4311 132.631 36.5559C127.566 38.0182 120.138 42.5173 119.237 55.4525C119.125 56.3523 119.8 57.0272 120.7 57.1397C121.601 57.1397 122.276 56.5773 122.389 55.6775C123.402 39.0305 136.57 39.0305 137.133 39.0305C137.921 39.0305 138.484 38.5806 138.709 37.9057C138.934 37.2308 138.596 36.4434 138.034 36.106C137.696 35.881 131.506 32.1692 127.229 31.0444C126.103 27.895 121.376 18.2217 108.095 20.8088C98.3025 22.7209 96.164 29.4697 93.5752 38.0182C91.887 43.6421 89.7484 50.6159 84.7961 58.152C83.8957 59.5018 83.2204 60.8515 82.5451 62.0888C82.5451 62.0888 77.1425 71.4246 78.6057 81.8852C79.0559 85.2596 79.9563 88.1841 81.0819 90.6587C81.1944 90.9961 81.4195 91.3335 81.5321 91.671C63.7487 85.3721 51.1428 68.5002 51.1428 48.7037C51.1428 23.6207 71.6274 3.14943 96.7267 3.14943C121.939 3.14943 142.423 23.6207 142.423 48.8162C142.423 60.0642 138.371 70.2998 131.618 78.1734C130.943 77.3861 130.267 76.7112 129.592 76.0363Z" fill="#414042"/>
<path d="M77.0298 19.1218C76.5796 18.8969 76.1294 18.8969 75.6792 19.1218C75.229 19.3468 64.649 24.8583 63.2984 32.7319C63.0733 33.9692 63.0733 35.3189 63.4109 36.4437C65.0992 38.2434 65.8871 40.268 66.2247 41.6178C66.3373 41.7303 66.4498 41.9552 66.5624 42.0677C67.8005 42.9676 69.7139 42.4051 69.7139 42.4051C69.939 42.4051 70.1641 42.2927 70.3892 42.2927C71.4022 41.0554 73.3156 39.4807 76.1294 39.0308C76.3545 38.8058 76.5796 38.5808 76.8047 38.2434C79.9562 34.3066 80.2938 28.1202 78.0428 20.0217C77.8177 19.6842 77.48 19.2343 77.0298 19.1218ZM74.216 36.3312C73.0905 37.681 71.7398 38.4684 70.5017 38.9183C68.5883 39.8181 67.4628 38.2434 67.4628 38.2434C66.4498 36.5562 65.9996 34.9815 66.3373 33.2943C67.1252 28.6826 72.5277 24.7458 75.3415 22.9462C76.8047 29.0201 76.3545 33.6317 74.216 36.3312Z" fill="#414042"/>
<path d="M80.6316 36.5573C75.9044 35.545 72.0776 36.5573 68.5885 40.1567C68.4759 40.2691 68.2508 40.2691 68.1382 40.0442C66.9002 35.545 63.7487 32.6205 60.0344 31.1583C59.3591 30.9333 58.5713 31.2708 58.2336 31.9456C58.121 32.1706 56.3202 36.2199 57.8959 40.1567C57.8959 39.9317 58.0085 39.7067 58.0085 39.5943C61.16 41.0565 62.9608 43.4186 63.8612 45.4432C64.5366 45.6682 65.3244 45.8931 66.1123 46.1181H66.2248L66.9002 45.8931C67.1253 45.7806 67.3504 45.8931 67.5755 46.0056L68.9261 46.6805C68.9261 46.6805 68.9261 46.6805 69.0387 46.6805C69.3763 46.793 69.714 46.793 70.0516 46.793C70.1642 46.793 70.2768 46.793 70.5019 46.793C72.1901 45.2182 74.8914 43.6435 78.6057 43.981C78.6057 44.2059 78.4931 44.4309 78.3806 44.6558C81.4195 42.0688 81.7571 38.2445 81.7571 38.0195C81.8697 37.3447 81.3069 36.6698 80.6316 36.5573ZM65.9997 42.9686C63.5236 42.2938 61.7227 41.169 60.9349 39.5943C60.0344 37.9071 60.147 35.8824 60.4847 34.5327C60.4847 34.4202 60.7098 34.3077 60.8223 34.4202C65.2119 36.7823 66.1123 41.0565 66.3374 42.6312C66.3374 42.9686 66.2248 43.0811 65.9997 42.9686ZM78.6057 39.3693C78.268 40.4941 77.5927 41.8438 76.2421 42.8562C74.6663 43.981 72.4153 44.3184 69.714 43.8685C69.6014 43.8685 69.4889 43.6435 69.6014 43.531C70.2768 42.4062 73.2031 38.6944 78.4931 39.1443C78.6057 39.0319 78.7182 39.1443 78.6057 39.3693Z" fill="#414042"/>
<path d="M79.3937 48.254C80.5192 47.3541 79.9565 49.1538 80.5192 48.029C81.9824 45.5545 82.095 43.0799 82.095 42.9674C82.095 42.1801 81.5322 41.5052 80.7443 41.3927C75.4543 40.4929 71.0648 41.7301 67.4631 45.8919C67.3505 46.0044 67.1254 46.0044 67.0129 45.7794C65.4371 40.8303 61.8355 37.6809 57.5584 36.3311C56.7706 36.1062 55.8702 36.4436 55.645 37.2309C55.5325 37.4559 53.394 42.8549 56.0953 47.4666C56.3204 47.804 55.5325 48.254 55.8702 48.5914C55.8702 47.9165 56.8831 47.2416 56.8831 46.7917C60.7099 48.029 62.8484 50.3911 63.8614 52.4157C64.1991 52.5282 64.6493 52.5282 64.9869 52.6407H65.0995C65.0995 52.6407 66.4501 52.3032 66.6752 52.4157L68.1384 53.0906C68.1384 53.0906 68.1384 53.0906 68.251 53.0906C68.5886 53.0906 69.0388 53.2031 69.3765 53.2031C69.489 53.2031 69.6016 53.2031 69.6016 53.2031C71.0648 51.4034 73.7661 49.0413 78.4933 49.0413L79.3937 48.254ZM64.6493 49.2663C61.8355 48.7039 59.8095 47.4666 58.7965 45.7794C57.671 43.9797 57.7836 41.7301 58.0087 40.2679C58.0087 40.0429 58.2338 40.0429 58.3463 40.0429C63.2986 42.5175 64.6493 47.1292 64.8744 48.9288C64.9869 49.1538 64.8744 49.3788 64.6493 49.2663ZM78.6058 44.6546C78.2682 45.8919 77.4803 47.4666 76.0171 48.5914C74.3288 49.9412 71.8527 50.3911 68.7012 49.9412C68.4761 49.9412 68.3635 49.7162 68.4761 49.4912C69.2639 48.254 72.3029 43.9797 78.2682 44.2047C78.4933 44.3172 78.6058 44.4297 78.6058 44.6546Z" fill="#414042"/>
<path d="M66.9005 58.041L68.5888 58.6034C68.5888 58.6034 68.5888 58.6034 68.7013 58.6034C69.1515 58.6034 69.4892 58.6034 69.8269 58.6034C73.5411 58.6034 76.58 57.7035 78.7185 55.9039C82.5453 52.7544 82.4328 48.0303 82.3202 47.9178C82.3202 47.1304 81.6449 46.568 80.7445 46.4556C75.0043 46.0056 70.6147 47.4679 67.1256 51.7421C67.013 51.8546 66.6754 51.8546 66.6754 51.6296C64.6494 47.018 60.485 44.206 55.8703 43.1937C54.9699 42.9687 54.182 43.4186 53.8443 44.206C53.7318 44.4309 51.931 49.83 55.195 53.9917C57.2209 56.4663 60.485 57.9285 65.0996 58.2659H65.2122C65.2122 58.3784 66.5628 57.9285 66.9005 58.041ZM68.5888 55.229C69.2641 53.9917 72.1905 49.605 78.4934 49.4925C78.7185 49.4925 78.8311 49.605 78.8311 49.83C78.606 51.0672 77.9307 52.6419 76.4675 53.7667C74.7792 55.1165 72.1905 55.7914 68.8139 55.5664C68.5888 55.5664 68.4762 55.3415 68.5888 55.229ZM64.762 54.8915C64.762 55.1165 64.6494 55.229 64.4243 55.229C61.3854 54.8915 59.1343 53.8792 57.8963 52.3045C56.5456 50.6173 56.4331 48.4802 56.6582 47.018C56.6582 46.9055 56.8833 46.793 56.9958 46.793C62.5109 48.8176 64.3118 53.2043 64.762 54.8915Z" fill="#414042"/>
<path d="M56.3203 38.2435C55.9826 38.2435 55.645 38.0185 55.5324 37.6811C54.8571 36.4438 54.7445 34.8691 55.0822 33.1819C55.1948 32.732 55.645 32.3945 56.0952 32.3945C56.5454 32.507 56.8831 32.9569 56.8831 33.4069C56.6579 34.7566 56.7705 35.8814 57.2207 36.7812C57.4458 37.2312 57.2207 37.7936 56.7705 38.0185C56.6579 38.2435 56.4328 38.2435 56.3203 38.2435Z" fill="#414042"/>
<path d="M59.4716 33.2953C59.0214 33.2953 58.5712 32.8454 58.5712 32.3955C58.5712 30.5958 59.0214 28.9086 59.6967 27.4464C59.9218 26.9965 60.4846 26.7715 60.9348 26.9965C61.385 27.2214 61.6101 27.7838 61.385 28.2337C60.7097 29.471 60.372 30.9332 60.372 32.3955C60.372 32.8454 59.9218 33.2953 59.4716 33.2953Z" fill="#414042"/>
<path d="M80.7442 43.5298C80.5191 43.5298 80.1814 43.4173 79.9563 43.1924C79.6187 42.7425 79.7312 42.1801 80.1814 41.9551C80.9693 41.3927 81.8697 40.3804 82.5451 39.2556C82.7702 38.8057 83.3329 38.6932 83.7831 38.9181C84.2333 39.1431 84.3459 39.7055 84.1208 40.1554C83.2204 41.5052 82.3199 42.63 81.1944 43.4173C81.0819 43.5298 80.9693 43.5298 80.7442 43.5298Z" fill="#414042"/>
<path d="M80.7441 38.5807C80.519 38.5807 80.2939 38.4682 80.0688 38.3557C79.7311 38.0183 79.7311 37.4559 80.0688 37.1184C80.0688 37.1184 81.1943 35.8812 81.9822 33.8565C82.2073 33.4066 82.6575 33.1817 83.2203 33.4066C83.6705 33.6316 83.8956 34.194 83.6705 34.6439C82.6575 37.006 81.4194 38.3557 81.4194 38.3557C81.1943 38.4682 80.9692 38.5807 80.7441 38.5807Z" fill="#414042"/>
<path d="M81.6446 48.4784C81.3069 48.4784 81.0818 48.3659 80.8567 48.141C80.5191 47.6911 80.6316 47.1287 81.0818 46.9037C81.0818 46.9037 81.8697 46.3413 83.2203 44.6541C83.558 44.3167 84.1208 44.2042 84.4584 44.5416C84.7961 44.8791 84.9086 45.4415 84.571 45.7789C82.9952 47.6911 82.2074 48.2535 82.0948 48.3659C81.9823 48.3659 81.8697 48.4784 81.6446 48.4784Z" fill="#414042"/>
<path d="M54.5197 44.429C54.182 44.429 53.8444 44.2041 53.7318 43.9791C53.169 42.8543 52.7188 41.617 52.6063 40.2673C52.4937 39.8173 52.8314 39.2549 53.3942 39.2549C53.8444 39.1425 54.4071 39.4799 54.4071 40.0423C54.5197 41.1671 54.8573 42.1794 55.4201 43.1917C55.6452 43.6417 55.4201 44.2041 54.9699 44.429C54.8573 44.429 54.7448 44.429 54.5197 44.429Z" fill="#414042"/>
<path d="M1.01322 128.398C0.337904 127.724 0.000244141 126.711 0.000244141 125.586V125.024C0.000244141 124.912 0.112793 124.799 0.225346 124.799H1.80109C1.91364 124.799 2.02619 124.912 2.02619 125.024V125.474C2.02619 126.149 2.13874 126.711 2.4764 127.049C2.81406 127.499 3.26427 127.611 3.71448 127.611C4.27724 127.611 4.61491 127.386 4.95257 127.049C5.29022 126.711 5.51533 126.149 5.51533 125.586C5.51533 125.136 5.40277 124.799 5.29022 124.462C5.06511 124.124 4.84001 123.899 4.6149 123.562C4.27725 123.337 3.82703 122.887 3.15172 122.437C2.36385 121.875 1.80108 121.425 1.46342 121.087C1.01321 120.75 0.675562 120.187 0.450457 119.737C0.112799 119.175 0.000244141 118.5 0.000244141 117.825C0.000244141 116.7 0.337904 115.688 1.01322 115.013C1.68854 114.338 2.58895 114.001 3.71448 114.001C4.84001 114.001 5.74043 114.338 6.5283 115.126C7.20361 115.913 7.54127 116.813 7.54127 118.05V118.613C7.54127 118.725 7.42872 118.838 7.31617 118.838H5.74043C5.62788 118.838 5.51533 118.725 5.51533 118.613V118.05C5.51533 117.375 5.40277 116.925 5.06512 116.476C4.72746 116.026 4.27724 115.913 3.71448 115.913C3.26427 115.913 2.81406 116.138 2.4764 116.476C2.13874 116.813 2.02619 117.375 2.02619 117.938C2.02619 118.5 2.13874 118.95 2.4764 119.4C2.81406 119.85 3.37682 120.3 4.27724 120.975C5.17766 121.65 5.74043 122.1 6.19064 122.549C6.64085 122.999 6.97851 123.449 7.20362 123.899C7.42873 124.349 7.54127 124.912 7.54127 125.586C7.54127 126.824 7.20361 127.724 6.5283 128.511C5.85298 129.186 4.95256 129.636 3.71448 129.636C2.7015 129.523 1.80109 129.186 1.01322 128.398Z" fill="#414042"/>
<path d="M16.3201 115.462C16.9954 116.249 17.333 117.262 17.333 118.611C17.333 119.849 16.9954 120.861 16.3201 121.648C15.6447 122.436 14.7443 122.773 13.7313 122.773H11.7054C11.5928 122.773 11.5928 122.773 11.5928 122.886V129.184C11.5928 129.297 11.4803 129.409 11.3677 129.409H9.67945C9.5669 129.409 9.45435 129.297 9.45435 129.184V114.45C9.45435 114.337 9.5669 114.225 9.67945 114.225H13.5062C14.7443 114.225 15.6447 114.675 16.3201 115.462ZM14.7443 120.411C15.082 119.961 15.3071 119.399 15.3071 118.611C15.3071 117.824 15.082 117.149 14.7443 116.699C14.4067 116.249 13.9564 116.024 13.2811 116.024H11.7054C11.5928 116.024 11.5928 116.024 11.5928 116.137V121.086C11.5928 121.198 11.5928 121.198 11.7054 121.198H13.2811C13.9564 121.086 14.4067 120.861 14.7443 120.411Z" fill="#414042"/>
<path d="M19.3594 129.072V114.45C19.3594 114.337 19.4719 114.225 19.5845 114.225H21.2728C21.3853 114.225 21.4979 114.337 21.4979 114.45V129.072C21.4979 129.184 21.3853 129.297 21.2728 129.297H19.5845C19.3594 129.297 19.3594 129.297 19.3594 129.072Z" fill="#414042"/>
<path d="M29.8265 129.185L27.8006 122.774C27.8006 122.774 27.8006 122.661 27.688 122.661H26.2248C26.1123 122.661 26.1123 122.661 26.1123 122.774V129.185C26.1123 129.298 25.9997 129.41 25.8872 129.41H24.1989C24.0863 129.41 23.9738 129.298 23.9738 129.185V114.563C23.9738 114.45 24.0863 114.338 24.1989 114.338H28.0257C28.8135 114.338 29.3763 114.563 29.9391 114.9C30.5018 115.238 30.952 115.8 31.2897 116.475C31.6274 117.15 31.7399 117.825 31.7399 118.725C31.7399 119.624 31.5148 120.412 31.1772 121.087C30.8395 121.762 30.2767 122.211 29.6014 122.549C29.6014 122.549 29.4888 122.661 29.6014 122.661L31.8525 129.298V129.41C31.8525 129.523 31.7399 129.523 31.6274 129.523H29.9391C29.9391 129.298 29.8265 129.298 29.8265 129.185ZM26.1123 116.138V120.974C26.1123 121.087 26.1123 121.087 26.2248 121.087H27.8006C28.3633 121.087 28.8135 120.862 29.2637 120.412C29.6014 119.962 29.8265 119.399 29.8265 118.612C29.8265 117.825 29.6014 117.262 29.2637 116.812C28.9261 116.363 28.4759 116.138 27.8006 116.138H26.1123C26.2248 116.025 26.1123 116.025 26.1123 116.138Z" fill="#414042"/>
<path d="M33.8785 129.072V114.45C33.8785 114.337 33.9911 114.225 34.1036 114.225H35.7919C35.9045 114.225 36.017 114.337 36.017 114.45V129.072C36.017 129.184 35.9045 129.297 35.7919 129.297H34.1036C33.8785 129.297 33.8785 129.297 33.8785 129.072Z" fill="#414042"/>
<path d="M46.0341 114.45V115.799C46.0341 115.912 45.9216 116.024 45.809 116.024H42.9952C42.8826 116.024 42.8826 116.024 42.8826 116.137V129.184C42.8826 129.297 42.7701 129.409 42.6575 129.409H40.9692C40.8567 129.409 40.7441 129.297 40.7441 129.184V116.137C40.7441 116.024 40.7441 116.024 40.6316 116.024H37.9303C37.8178 116.024 37.7052 115.912 37.7052 115.799V114.45C37.7052 114.337 37.8178 114.225 37.9303 114.225H45.6965C46.0341 114.225 46.0341 114.337 46.0341 114.45Z" fill="#414042"/>
<path d="M59.0902 128.285C58.3023 128.96 57.4019 129.41 56.1638 129.41H52.5622C52.4496 129.41 52.337 129.298 52.337 129.185V114.563C52.337 114.45 52.4496 114.338 52.5622 114.338H55.8262C57.1768 114.338 58.1898 114.675 58.8651 115.35C59.653 116.025 59.9906 117.037 59.9906 118.387C59.9906 119.962 59.4279 120.974 58.3023 121.649C58.1898 121.649 58.1898 121.762 58.3023 121.762C58.8651 122.099 59.3153 122.549 59.653 123.224C59.9906 123.786 60.1032 124.574 60.1032 125.473C60.2158 126.486 59.8781 127.498 59.0902 128.285ZM54.4756 116.138V120.749C54.4756 120.862 54.4755 120.862 54.5881 120.862H55.9387C56.6141 120.862 57.1768 120.637 57.5145 120.299C57.8521 119.849 58.0772 119.287 58.0772 118.612C58.0772 117.825 57.8521 117.262 57.5145 116.812C57.1768 116.363 56.6141 116.138 55.9387 116.138H54.4756C54.4756 116.025 54.4756 116.025 54.4756 116.138ZM57.627 126.823C57.9647 126.373 58.1898 125.698 58.1898 124.911C58.1898 124.124 57.9647 123.449 57.627 122.999C57.2894 122.549 56.7266 122.324 56.0513 122.324H54.5881C54.4755 122.324 54.4756 122.324 54.4756 122.436V127.498C54.4756 127.61 54.4755 127.61 54.5881 127.61H56.0513C56.7266 127.498 57.1768 127.273 57.627 126.823Z" fill="#414042"/>
<path d="M63.0296 128.397C62.3543 127.723 61.9041 126.71 61.9041 125.585V118.049C61.9041 116.812 62.2417 115.912 63.0296 115.125C63.7049 114.45 64.7179 114 65.8434 114C67.0815 114 67.9819 114.337 68.7698 115.125C69.4451 115.8 69.8953 116.812 69.8953 118.049V125.585C69.8953 126.823 69.5577 127.723 68.7698 128.397C68.0945 129.072 67.0815 129.522 65.8434 129.522C64.6053 129.522 63.7049 129.185 63.0296 128.397ZM67.1941 127.16C67.5317 126.823 67.7568 126.26 67.7568 125.698V117.937C67.7568 117.374 67.5317 116.812 67.1941 116.475C66.8564 116.137 66.4062 115.912 65.8434 115.912C65.2806 115.912 64.8304 116.137 64.4928 116.475C64.1551 116.812 63.93 117.374 63.93 117.937V125.698C63.93 126.26 64.0426 126.823 64.4928 127.16C64.8304 127.498 65.2806 127.723 65.8434 127.723C66.4062 127.723 66.8564 127.498 67.1941 127.16Z" fill="#414042"/>
<path d="M79.6873 114.45V115.799C79.6873 115.912 79.5747 116.024 79.4622 116.024H76.6484C76.5358 116.024 76.5358 116.024 76.5358 116.137V129.184C76.5358 129.297 76.4233 129.409 76.3107 129.409H74.6224C74.5099 129.409 74.3973 129.297 74.3973 129.184V116.137C74.3973 116.024 74.3973 116.024 74.2848 116.024H71.5835C71.4709 116.024 71.3584 115.912 71.3584 115.799V114.45C71.3584 114.337 71.4709 114.225 71.5835 114.225H79.3496C79.5747 114.225 79.6873 114.337 79.6873 114.45Z" fill="#414042"/>
<path d="M89.1418 114.45V115.799C89.1418 115.912 89.0292 116.024 88.9166 116.024H86.1028C85.9903 116.024 85.9903 116.024 85.9903 116.137V129.184C85.9903 129.297 85.8777 129.409 85.7652 129.409H84.0769C83.9643 129.409 83.8518 129.297 83.8518 129.184V116.137C83.8518 116.024 83.8518 116.024 83.7392 116.024H81.1505C81.038 116.024 80.9254 115.912 80.9254 115.799V114.45C80.9254 114.337 81.038 114.225 81.1505 114.225H88.9166C89.0292 114.225 89.1418 114.337 89.1418 114.45Z" fill="#414042"/>
<path d="M90.9425 129.072V114.45C90.9425 114.337 91.0551 114.225 91.1676 114.225H92.8559C92.9685 114.225 93.081 114.337 93.081 114.45V127.497C93.081 127.61 93.081 127.61 93.1936 127.61H98.0333C98.1459 127.61 98.2584 127.722 98.2584 127.835V129.184C98.2584 129.297 98.1459 129.409 98.0333 129.409H91.2802C91.0551 129.297 90.9425 129.297 90.9425 129.072Z" fill="#414042"/>
<path d="M99.7219 129.072V114.45C99.7219 114.337 99.8345 114.225 99.947 114.225H101.635C101.748 114.225 101.86 114.337 101.86 114.45V129.072C101.86 129.184 101.748 129.297 101.635 129.297H99.947C99.8345 129.297 99.7219 129.297 99.7219 129.072Z" fill="#414042"/>
<path d="M110.864 114.224H112.44C112.553 114.224 112.665 114.336 112.665 114.449V129.071C112.665 129.184 112.553 129.296 112.44 129.296H110.639C110.527 129.296 110.414 129.184 110.414 129.071L106.7 119.173C106.7 119.173 106.7 119.173 106.587 119.173V128.959C106.587 129.071 106.475 129.184 106.362 129.184H104.787C104.674 129.184 104.562 129.071 104.562 128.959V114.336C104.562 114.224 104.674 114.111 104.787 114.111H106.587C106.7 114.111 106.813 114.224 106.813 114.336L110.527 124.235C110.527 124.235 110.527 124.347 110.639 124.235C110.752 124.122 110.639 124.235 110.639 124.122V114.336C110.639 114.336 110.639 114.224 110.864 114.224Z" fill="#414042"/>
<path d="M116.042 128.51C115.367 127.835 115.029 126.935 115.029 125.81V117.936C115.029 116.812 115.367 115.912 116.042 115.237C116.717 114.562 117.73 114.225 118.856 114.225C119.981 114.225 120.994 114.562 121.67 115.237C122.345 115.912 122.795 116.812 122.795 118.049V118.949C122.795 119.061 122.683 119.174 122.57 119.174H120.882C120.769 119.174 120.657 119.061 120.657 118.949V118.049C120.657 117.487 120.544 117.037 120.094 116.587C119.756 116.249 119.306 116.024 118.743 116.024C118.181 116.024 117.73 116.249 117.393 116.587C117.055 116.924 116.83 117.374 116.83 118.049V126.035C116.83 126.597 116.942 127.047 117.393 127.497C117.73 127.835 118.181 128.06 118.743 128.06C119.306 128.06 119.756 127.835 120.094 127.497C120.432 127.16 120.657 126.71 120.657 126.035V123.673C120.657 123.56 120.657 123.56 120.544 123.56H118.856C118.743 123.56 118.631 123.448 118.631 123.335V121.986C118.631 121.873 118.743 121.761 118.856 121.761H122.458C122.57 121.761 122.683 121.873 122.683 121.986V125.923C122.683 127.047 122.345 127.947 121.557 128.622C120.882 129.297 119.869 129.634 118.743 129.634C117.73 129.522 116.83 129.184 116.042 128.51Z" fill="#414042"/>
<path d="M130.223 128.51C129.548 127.835 129.21 126.935 129.21 125.81V117.936C129.21 116.812 129.548 115.912 130.223 115.237C130.899 114.562 131.912 114.225 133.037 114.225C134.163 114.225 135.176 114.562 135.851 115.237C136.526 115.912 136.977 116.812 136.977 118.049V118.949C136.977 119.061 136.864 119.174 136.751 119.174H135.176C135.063 119.174 134.951 119.061 134.951 118.949V118.049C134.951 117.487 134.838 117.037 134.388 116.587C134.05 116.249 133.6 116.024 133.037 116.024C132.474 116.024 132.024 116.249 131.687 116.587C131.349 116.924 131.124 117.374 131.124 118.049V126.035C131.124 126.597 131.236 127.047 131.687 127.497C132.024 127.835 132.474 128.06 133.037 128.06C133.6 128.06 134.05 127.835 134.388 127.497C134.726 127.16 134.951 126.71 134.951 126.035V123.673C134.951 123.56 134.951 123.56 134.838 123.56H133.15C133.037 123.56 132.925 123.448 132.925 123.335V121.986C132.925 121.873 133.037 121.761 133.15 121.761H136.751C136.864 121.761 136.977 121.873 136.977 121.986V125.923C136.977 127.047 136.639 127.947 135.851 128.622C135.176 129.297 134.163 129.634 133.037 129.634C131.912 129.522 131.011 129.184 130.223 128.51Z" fill="#414042"/>
<path d="M145.081 129.185L143.055 122.774C143.055 122.774 143.055 122.661 142.942 122.661H141.479C141.367 122.661 141.367 122.661 141.367 122.774V129.185C141.367 129.298 141.254 129.41 141.142 129.41H139.453C139.341 129.41 139.228 129.298 139.228 129.185V114.563C139.228 114.45 139.341 114.338 139.453 114.338H143.28C144.068 114.338 144.631 114.563 145.193 114.9C145.756 115.238 146.206 115.8 146.544 116.475C146.882 117.15 146.994 117.825 146.994 118.725C146.994 119.624 146.769 120.412 146.432 121.087C146.094 121.762 145.531 122.211 144.856 122.549C144.856 122.549 144.743 122.661 144.856 122.661L147.107 129.298V129.41C147.107 129.523 146.994 129.523 146.882 129.523H145.306C145.193 129.298 145.193 129.298 145.081 129.185ZM141.479 116.138V120.974C141.479 121.087 141.479 121.087 141.592 121.087H143.168C143.73 121.087 144.18 120.862 144.631 120.412C144.968 119.962 145.193 119.399 145.193 118.612C145.193 117.825 144.968 117.262 144.631 116.812C144.293 116.363 143.843 116.138 143.168 116.138H141.479C141.479 116.025 141.479 116.025 141.479 116.138Z" fill="#414042"/>
<path d="M149.921 128.397C149.245 127.723 148.795 126.71 148.795 125.585V118.049C148.795 116.812 149.133 115.912 149.921 115.125C150.596 114.45 151.609 114 152.734 114C153.972 114 154.873 114.337 155.661 115.125C156.336 115.8 156.786 116.812 156.786 118.049V125.585C156.786 126.823 156.449 127.723 155.661 128.397C154.985 129.072 153.972 129.522 152.734 129.522C151.609 129.522 150.596 129.185 149.921 128.397ZM154.085 127.16C154.423 126.823 154.648 126.26 154.648 125.698V117.937C154.648 117.374 154.423 116.812 154.085 116.475C153.747 116.137 153.297 115.912 152.734 115.912C152.172 115.912 151.721 116.137 151.384 116.475C151.046 116.812 150.821 117.374 150.821 117.937V125.698C150.821 126.26 150.934 126.823 151.384 127.16C151.721 127.498 152.172 127.723 152.734 127.723C153.297 127.723 153.747 127.498 154.085 127.16Z" fill="#414042"/>
<path d="M160.05 128.284C159.375 127.496 159.037 126.484 159.037 125.134V114.336C159.037 114.224 159.15 114.111 159.262 114.111H160.95C161.063 114.111 161.175 114.224 161.175 114.336V125.359C161.175 126.034 161.401 126.597 161.738 127.046C162.076 127.496 162.526 127.721 163.089 127.721C163.652 127.721 164.102 127.496 164.44 127.046C164.777 126.597 165.002 126.034 165.002 125.359V114.336C165.002 114.224 165.115 114.111 165.227 114.111H166.916C167.028 114.111 167.141 114.224 167.141 114.336V125.134C167.141 126.372 166.803 127.496 166.015 128.284C165.34 129.071 164.327 129.409 163.201 129.409C161.738 129.521 160.725 129.071 160.05 128.284Z" fill="#414042"/>
<path d="M175.92 115.462C176.596 116.249 176.933 117.262 176.933 118.611C176.933 119.849 176.596 120.861 175.92 121.648C175.245 122.436 174.345 122.773 173.332 122.773H171.306C171.193 122.773 171.193 122.773 171.193 122.886V129.184C171.193 129.297 171.081 129.409 170.968 129.409H169.28C169.167 129.409 169.055 129.297 169.055 129.184V114.45C169.055 114.337 169.167 114.225 169.28 114.225H173.107C174.345 114.225 175.245 114.675 175.92 115.462ZM174.345 120.411C174.682 119.961 174.907 119.399 174.907 118.611C174.907 117.824 174.682 117.149 174.345 116.699C174.007 116.249 173.557 116.024 172.882 116.024H171.306C171.193 116.024 171.193 116.024 171.193 116.137V121.086C171.193 121.198 171.193 121.198 171.306 121.198H172.882C173.444 121.086 173.895 120.861 174.345 120.411Z" fill="#414042"/>
<path d="M183.236 120.185V114.224C183.236 114.111 183.236 114.111 183.348 114.111H184.024C184.136 114.111 184.136 114.111 184.136 114.224V120.185C184.136 120.298 184.136 120.298 184.024 120.298L183.236 120.185Z" fill="#414042"/>
<path d="M187.625 114.111H188.301C188.413 114.111 188.413 114.111 188.413 114.224V120.185C188.413 120.298 188.413 120.298 188.301 120.298H187.513C187.513 120.298 187.4 120.298 187.4 120.185L185.937 116.248V120.185C185.937 120.298 185.937 120.298 185.825 120.298H185.149C185.037 120.298 185.037 120.298 185.037 120.185V114.224C185.037 114.111 185.037 114.111 185.149 114.111H185.937C185.937 114.111 186.05 114.111 186.05 114.224L187.513 118.161L187.625 114.111Z" fill="#414042"/>
<path d="M189.764 119.849C189.427 119.512 189.314 119.174 189.314 118.724V115.575C189.314 115.125 189.427 114.675 189.764 114.45C190.102 114.112 190.44 114 190.89 114C191.34 114 191.79 114.112 192.015 114.45C192.353 114.787 192.466 115.125 192.466 115.575V115.687C192.466 115.8 192.466 115.8 192.353 115.8H191.678C191.565 115.8 191.565 115.8 191.565 115.687V115.462C191.565 115.237 191.453 115.012 191.34 114.9C191.227 114.787 191.002 114.675 190.777 114.675C190.552 114.675 190.327 114.787 190.214 114.9C190.102 115.012 189.989 115.237 189.989 115.462V118.724C189.989 118.949 190.102 119.174 190.214 119.287C190.327 119.399 190.552 119.512 190.777 119.512C191.002 119.512 191.227 119.399 191.34 119.287C191.453 119.174 191.565 118.949 191.565 118.724V118.499C191.565 118.387 191.565 118.387 191.678 118.387H192.353C192.466 118.387 192.466 118.387 192.466 118.499V118.612C192.466 119.062 192.353 119.512 192.015 119.736C191.678 120.074 191.34 120.186 190.89 120.186C190.44 120.299 190.102 120.186 189.764 119.849Z" fill="#414042"/>
<path d="M193.366 120.074C193.253 119.961 193.253 119.849 193.253 119.624C193.253 119.511 193.253 119.286 193.366 119.174C193.479 119.062 193.591 119.062 193.816 119.062C193.929 119.062 194.154 119.062 194.266 119.174C194.379 119.286 194.379 119.399 194.379 119.624C194.379 119.736 194.379 119.961 194.266 120.074C194.154 120.186 194.041 120.186 193.816 120.186C193.591 120.186 193.366 120.186 193.366 120.074Z" fill="#414042"/>
<path d="M194.266 142.12H0V143.47H194.266V142.12Z" fill="#414042"/>
<path d="M0 166.978V156.967C0 156.854 -1.7191e-06 156.854 0.112551 156.854H2.36361C3.15148 156.854 3.71424 157.079 4.16445 157.642C4.61466 158.092 4.83976 158.879 4.83976 159.666V164.278C4.83976 165.178 4.61466 165.853 4.16445 166.303C3.71424 166.753 3.03892 167.09 2.36361 167.09H0.112551C-1.7191e-06 167.09 0 167.09 0 166.978ZM1.35063 165.853H2.36361C2.70127 165.853 3.03893 165.74 3.26403 165.403C3.48914 165.066 3.60169 164.728 3.60169 164.166V159.554C3.60169 159.104 3.48914 158.654 3.26403 158.317C3.03893 157.979 2.81382 157.867 2.36361 157.867H1.35063C1.35063 157.867 1.23808 157.867 1.23808 157.979L1.35063 165.853Z" fill="#414042"/>
<path d="M6.5282 158.091C6.41565 157.866 6.3031 157.641 6.3031 157.416C6.3031 157.191 6.41565 156.967 6.5282 156.742C6.64076 156.517 6.86587 156.517 7.20353 156.517C7.42863 156.517 7.65374 156.629 7.87884 156.742C7.9914 156.967 8.10395 157.191 8.10395 157.416C8.10395 157.641 7.9914 157.866 7.87884 158.091C7.76629 158.316 7.54119 158.316 7.20353 158.316C6.86587 158.429 6.64076 158.316 6.5282 158.091ZM6.41565 166.977V159.779C6.41565 159.666 6.41565 159.666 6.5282 159.666H7.54118C7.65373 159.666 7.65373 159.666 7.65373 159.779V166.977C7.65373 167.09 7.65373 167.09 7.54118 167.09H6.5282C6.5282 167.09 6.41565 167.09 6.41565 166.977Z" fill="#414042"/>
<path d="M9.67959 166.64C9.22938 166.302 9.11682 165.74 9.11682 165.178V165.065C9.11682 164.953 9.11682 164.953 9.22937 164.953H10.2423C10.3549 164.953 10.3549 164.953 10.3549 165.065V165.178C10.3549 165.403 10.4675 165.628 10.6926 165.853C10.9177 166.078 11.1428 166.078 11.3679 166.078C11.593 166.078 11.8181 165.965 12.0432 165.853C12.2683 165.74 12.2683 165.403 12.2683 165.178C12.2683 164.953 12.1557 164.728 12.0432 164.615C11.9306 164.503 11.8181 164.39 11.593 164.278C11.4804 164.165 11.1428 164.053 10.8051 163.94C10.4675 163.828 10.1298 163.603 9.90469 163.491C9.67958 163.378 9.45448 163.153 9.22937 162.816C9.00427 162.478 9.00427 162.141 9.00427 161.691C9.00427 161.016 9.22938 160.454 9.56704 160.116C10.0172 159.779 10.4675 159.554 11.1428 159.554C11.8181 159.554 12.3808 159.779 12.7185 160.116C13.1687 160.454 13.2813 161.016 13.2813 161.691C13.2813 161.803 13.2813 161.803 13.1687 161.803H12.4934C12.3808 161.803 12.3809 161.803 12.3809 161.691V161.578C12.3809 161.353 12.2683 161.128 12.1557 160.903C11.9306 160.679 11.7055 160.679 11.4804 160.679C11.1428 160.679 10.9177 160.791 10.8051 160.903C10.6926 161.128 10.58 161.353 10.58 161.578C10.58 161.803 10.58 161.916 10.6926 162.141C10.8051 162.253 10.9177 162.366 11.1428 162.478C11.2553 162.591 11.593 162.703 11.9306 162.816C12.2683 163.041 12.606 163.153 12.8311 163.378C13.0562 163.491 13.2813 163.715 13.5064 164.053C13.7315 164.39 13.844 164.728 13.844 165.178C13.844 165.853 13.6189 166.302 13.1687 166.752C12.7185 167.09 12.1557 167.315 11.4804 167.315C10.6926 167.202 10.1298 166.977 9.67959 166.64Z" fill="#414042"/>
<path d="M17.4458 160.566H16.4328C16.4328 160.566 16.4328 160.566 16.4328 160.678V164.84C16.4328 165.29 16.5454 165.515 16.6579 165.627C16.7705 165.74 16.9956 165.852 17.2207 165.852H17.3332C17.4458 165.852 17.4458 165.852 17.4458 165.965V166.865C17.4458 166.977 17.4458 166.977 17.3332 166.977H16.883C16.3203 166.977 15.8701 166.865 15.5324 166.64C15.1947 166.415 15.0822 165.965 15.0822 165.29V160.678C15.0822 160.678 15.0822 160.566 14.9696 160.566H14.4069C14.2943 160.566 14.2943 160.566 14.2943 160.453V159.779C14.2943 159.666 14.2943 159.666 14.4069 159.666H14.9696C14.9696 159.666 15.0822 159.666 15.0822 159.554V157.866C15.0822 157.754 15.0822 157.754 15.1947 157.754H16.2077C16.3203 157.754 16.3203 157.754 16.3203 157.866V159.554V159.666H17.3332C17.4458 159.666 17.4458 159.666 17.4458 159.779V160.566C17.4458 160.566 17.5583 160.566 17.4458 160.566Z" fill="#414042"/>
<path d="M18.6837 158.091C18.5712 157.866 18.4586 157.641 18.4586 157.416C18.4586 157.191 18.5712 156.967 18.6837 156.742C18.7963 156.517 19.0214 156.517 19.359 156.517C19.5841 156.517 19.8093 156.629 20.0344 156.742C20.1469 156.967 20.2595 157.191 20.2595 157.416C20.2595 157.641 20.1469 157.866 20.0344 158.091C19.9218 158.316 19.6967 158.316 19.359 158.316C19.0214 158.429 18.9088 158.316 18.6837 158.091ZM18.6837 166.977V159.779C18.6837 159.666 18.6837 159.666 18.7963 159.666H19.8093C19.9218 159.666 19.9218 159.666 19.9218 159.779V166.977C19.9218 167.09 19.9218 167.09 19.8093 167.09H18.7963C18.6837 167.09 18.6837 167.09 18.6837 166.977Z" fill="#414042"/>
<path d="M21.4976 166.978V156.967C21.4976 156.854 21.4976 156.854 21.6101 156.854H22.6231C22.7356 156.854 22.7356 156.854 22.7356 156.967V166.978C22.7356 167.09 22.7356 167.09 22.6231 167.09H21.6101C21.4976 167.09 21.4976 167.09 21.4976 166.978Z" fill="#414042"/>
<path d="M24.1989 166.978V156.967C24.1989 156.854 24.1989 156.854 24.3114 156.854H25.3244C25.4369 156.854 25.4369 156.854 25.4369 156.967V166.978C25.4369 167.09 25.4369 167.09 25.3244 167.09H24.3114C24.1989 167.09 24.1989 167.09 24.1989 166.978Z" fill="#414042"/>
<path d="M31.29 163.94H28.1385C28.1385 163.94 28.1385 163.94 28.1385 164.053V164.84C28.1385 165.178 28.251 165.515 28.3636 165.74C28.5887 165.965 28.8138 166.078 29.0389 166.078C29.264 166.078 29.4891 165.965 29.7142 165.853C29.9393 165.74 30.0519 165.515 30.0519 165.178C30.0519 165.065 30.1644 165.065 30.1644 165.065L31.1774 165.178H31.29V165.29C31.1774 165.965 30.9523 166.415 30.6146 166.752C30.1644 167.09 29.7142 167.315 29.0389 167.315C28.3636 167.315 27.8008 167.09 27.3506 166.64C26.9004 166.19 26.6753 165.628 26.6753 164.953V161.916C26.6753 161.241 26.9004 160.679 27.3506 160.229C27.8008 159.779 28.3636 159.554 29.0389 159.554C29.7142 159.554 30.3895 159.779 30.7272 160.229C31.1774 160.679 31.4025 161.241 31.4025 161.916V163.828C31.5151 163.94 31.4025 163.94 31.29 163.94ZM28.3636 161.016C28.1385 161.241 28.1385 161.578 28.1385 161.916V162.703V162.816H30.0519C30.0519 162.816 30.1644 162.816 30.1644 162.703V161.916C30.1644 161.578 30.0519 161.241 29.9393 161.016C29.8268 160.791 29.4891 160.679 29.1515 160.679C28.8138 160.679 28.5887 160.791 28.3636 161.016Z" fill="#414042"/>
<path d="M36.0167 159.666C36.1293 159.666 36.1293 159.779 36.1293 159.891L35.9042 161.016C35.9042 161.128 35.7916 161.128 35.7916 161.128C35.6791 161.128 35.5665 161.016 35.454 161.016C35.3414 161.016 35.3414 161.016 35.2289 161.016C34.8912 161.016 34.6661 161.241 34.5535 161.466C34.3284 161.803 34.2159 162.141 34.2159 162.591V166.865C34.2159 166.977 34.2159 166.977 34.1033 166.977H33.0903C32.9778 166.977 32.9778 166.977 32.9778 166.865V159.779C32.9778 159.666 32.9778 159.666 33.0903 159.666H34.1033C34.2159 159.666 34.2159 159.666 34.2159 159.779V160.679C34.441 160.004 34.8912 159.554 35.5665 159.554C35.6791 159.554 35.7916 159.554 36.0167 159.666Z" fill="#414042"/>
<path d="M36.9174 170.013C36.9174 170.013 36.9174 169.901 36.9174 170.013V169.001C36.9174 168.888 36.9174 168.888 37.0299 168.888C37.3676 168.888 37.5927 168.776 37.7052 168.776C37.8178 168.776 38.0429 168.551 38.1555 168.326C38.268 168.101 38.3806 167.764 38.3806 167.201V167.089L36.5797 159.778C36.5797 159.665 36.5797 159.665 36.6923 159.665H37.8178C37.9304 159.665 37.9304 159.665 37.9304 159.778L38.9433 165.064L39.9563 159.778C39.9563 159.665 40.0689 159.665 40.0689 159.665H41.1944H41.3069V159.778L39.3935 167.651C39.1684 168.326 39.0559 168.888 38.8308 169.113C38.6057 169.451 38.3806 169.676 38.0429 169.788C37.7052 169.901 37.255 170.013 36.6923 170.013H36.9174Z" fill="#414042"/>
<path d="M51.8867 166.977C51.8867 167.09 51.8867 167.09 51.8867 166.977C51.8867 167.09 51.7742 167.09 51.8867 166.977L50.6487 167.09C50.5361 167.09 50.5361 167.09 50.4236 166.977L49.9733 166.302C49.9733 166.302 49.9733 166.302 49.8608 166.302C49.5231 166.64 49.1855 166.865 48.7353 166.977C48.3976 167.09 47.9474 167.202 47.4972 167.202C46.7093 167.202 46.1465 166.977 45.6963 166.527C45.2461 166.077 45.021 165.515 45.021 164.615C45.021 163.94 45.1336 163.378 45.4712 162.928C45.8089 162.478 46.1465 162.028 46.7093 161.578C46.7093 161.578 46.7093 161.578 46.7093 161.466C46.3716 161.016 46.1465 160.566 46.034 160.341C45.9214 160.116 45.8089 159.779 45.6963 159.666C45.6963 159.441 45.5838 159.216 45.5838 158.991C45.5838 158.316 45.8089 157.641 46.1465 157.191C46.5967 156.742 47.047 156.517 47.7223 156.517C48.3976 156.517 48.9604 156.742 49.4106 157.191C49.8608 157.641 50.0859 158.204 50.0859 158.991C50.0859 159.554 49.9733 160.116 49.6357 160.566C49.298 161.016 48.9604 161.466 48.3976 161.916C48.3976 161.916 48.3976 161.916 48.3976 162.028L49.0729 163.04L49.8608 164.165C49.8608 164.165 49.8608 164.165 49.9733 164.165C49.9733 164.053 50.0859 164.053 50.0859 163.94C50.311 163.49 50.4236 163.265 50.5361 163.04C50.5361 163.04 50.5361 162.928 50.6487 162.928H50.7612L51.5491 163.378C51.6616 163.378 51.6616 163.49 51.5491 163.603C51.324 164.165 50.9863 164.728 50.5361 165.29V165.403L51.8867 166.977ZM49.1855 165.29C49.1855 165.29 49.1855 165.178 49.1855 165.29L47.4972 162.815C47.4972 162.815 47.4972 162.815 47.3846 162.815C47.047 163.153 46.8219 163.378 46.5968 163.715C46.3716 164.053 46.3716 164.278 46.3716 164.728C46.3716 165.178 46.4842 165.515 46.7093 165.74C46.9344 165.965 47.2721 166.077 47.6097 166.077C48.1725 165.965 48.7353 165.74 49.1855 165.29ZM47.2721 158.204C47.047 158.429 47.047 158.654 47.047 159.104C47.047 159.329 47.047 159.554 47.1595 159.779C47.2721 160.003 47.3846 160.341 47.7223 160.791C47.7223 160.791 47.7223 160.791 47.8348 160.791C48.1725 160.453 48.3976 160.228 48.6227 159.891C48.8478 159.666 48.8478 159.329 48.8478 158.991C48.8478 158.654 48.7353 158.429 48.6227 158.204C48.5102 157.979 48.285 157.866 47.9474 157.866C47.6097 157.979 47.3846 158.091 47.2721 158.204Z" fill="#414042"/>
<path d="M56.1639 166.978V156.967C56.1639 156.854 56.1639 156.854 56.2765 156.854H58.5275C59.3154 156.854 59.8782 157.079 60.3284 157.642C60.7786 158.092 61.0037 158.879 61.0037 159.666V164.278C61.0037 165.178 60.7786 165.853 60.3284 166.303C59.8782 166.753 59.2029 167.09 58.5275 167.09H56.2765C56.1639 167.09 56.1639 167.09 56.1639 166.978ZM57.5146 165.853H58.5275C58.8652 165.853 59.2029 165.74 59.428 165.403C59.6531 165.066 59.7656 164.728 59.7656 164.166V159.554C59.7656 159.104 59.6531 158.654 59.428 158.317C59.2029 157.979 58.9778 157.867 58.5275 157.867H57.5146C57.5146 157.867 57.5146 157.867 57.5146 157.979V165.853Z" fill="#414042"/>
<path d="M62.6919 158.091C62.5794 157.866 62.4668 157.641 62.4668 157.416C62.4668 157.191 62.5794 156.967 62.6919 156.742C62.8045 156.517 63.0296 156.517 63.3672 156.517C63.5923 156.517 63.8175 156.629 64.0426 156.742C64.1551 156.967 64.2677 157.191 64.2677 157.416C64.2677 157.641 64.1551 157.866 64.0426 158.091C63.93 158.316 63.7049 158.316 63.3672 158.316C63.0296 158.429 62.8045 158.316 62.6919 158.091ZM62.5794 166.977V159.779C62.5794 159.666 62.5794 159.666 62.6919 159.666H63.7049C63.8175 159.666 63.8175 159.666 63.8175 159.779V166.977C63.8175 167.09 63.8175 167.09 63.7049 167.09H62.6919C62.6919 167.09 62.5794 167.09 62.5794 166.977Z" fill="#414042"/>
<path d="M65.8435 166.64C65.3933 166.302 65.2808 165.74 65.2808 165.178V165.065C65.2808 164.953 65.2808 164.953 65.3933 164.953H66.4063C66.5188 164.953 66.5188 164.953 66.5188 165.065V165.178C66.5188 165.403 66.6314 165.628 66.8565 165.853C67.0816 166.078 67.3067 166.078 67.5318 166.078C67.7569 166.078 67.982 165.965 68.2071 165.853C68.4322 165.74 68.4322 165.403 68.4322 165.178C68.4322 164.953 68.3197 164.728 68.2071 164.615C68.0946 164.503 67.982 164.39 67.7569 164.278C67.6444 164.165 67.3067 164.053 66.969 163.94C66.6314 163.828 66.2937 163.603 66.0686 163.491C65.8435 163.378 65.6184 163.153 65.3933 162.816C65.1682 162.478 65.1682 162.141 65.1682 161.691C65.1682 161.016 65.3933 160.454 65.731 160.116C66.1812 159.779 66.6314 159.554 67.3067 159.554C67.982 159.554 68.5448 159.779 68.8824 160.116C69.3326 160.454 69.4452 161.016 69.4452 161.691C69.4452 161.803 69.4452 161.803 69.3326 161.803H68.3197C68.2071 161.803 68.2071 161.803 68.2071 161.691V161.578C68.2071 161.353 68.0946 161.128 67.982 160.903C67.7569 160.679 67.5318 160.679 67.3067 160.679C66.969 160.679 66.7439 160.791 66.6314 160.903C66.5188 161.128 66.4063 161.353 66.4063 161.578C66.4063 161.803 66.4063 161.916 66.5188 162.141C66.6314 162.366 66.7439 162.366 66.969 162.478C67.0816 162.591 67.4193 162.703 67.7569 162.816C68.0946 163.041 68.4322 163.153 68.6573 163.378C68.8824 163.491 69.1075 163.715 69.3326 164.053C69.5577 164.39 69.6703 164.728 69.6703 165.178C69.6703 165.853 69.4452 166.302 68.995 166.752C68.5448 167.09 67.982 167.315 67.3067 167.315C66.8565 167.202 66.2937 166.977 65.8435 166.64Z" fill="#414042"/>
<path d="M73.4972 160.566H72.4842C72.4842 160.566 72.4842 160.566 72.4842 160.678V164.84C72.4842 165.29 72.5967 165.515 72.7093 165.627C72.8219 165.74 73.047 165.852 73.2721 165.852H73.3846C73.4972 165.852 73.4972 165.852 73.4972 165.965V166.865C73.4972 166.977 73.4972 166.977 73.3846 166.977H72.9344C72.3716 166.977 71.9214 166.865 71.5838 166.64C71.2461 166.415 71.1336 165.965 71.1336 165.29V160.678V160.566H70.5708C70.4583 160.566 70.4583 160.566 70.4583 160.453V159.779C70.4583 159.666 70.4583 159.666 70.5708 159.666H71.1336C71.1336 159.666 71.1336 159.666 71.1336 159.554V157.866C71.1336 157.754 71.1336 157.754 71.2461 157.754H72.2591C72.3716 157.754 72.3716 157.754 72.3716 157.866V159.554V159.666H73.3846C73.4972 159.666 73.4972 159.666 73.4972 159.779V160.566C73.6097 160.566 73.7223 160.566 73.4972 160.566Z" fill="#414042"/>
<path d="M77.9992 159.666C78.1118 159.666 78.1118 159.779 78.1118 159.891L77.8867 161.016C77.8867 161.128 77.7741 161.128 77.7741 161.128C77.6616 161.128 77.549 161.016 77.4365 161.016C77.4365 161.016 77.3239 161.016 77.2114 161.016C76.8737 161.016 76.6486 161.241 76.536 161.466C76.3109 161.803 76.1984 162.141 76.1984 162.591V166.865C76.1984 166.977 76.1984 166.977 76.0858 166.977H75.0729C74.9603 166.977 74.9603 166.977 74.9603 166.865V159.779C74.9603 159.666 74.9603 159.666 75.0729 159.666H76.0858C76.1984 159.666 76.1984 159.666 76.1984 159.779V160.679C76.4235 160.004 76.8737 159.554 77.549 159.554C77.6616 159.554 77.8867 159.554 77.9992 159.666Z" fill="#414042"/>
<path d="M79.1248 158.091C79.0122 157.866 78.8997 157.641 78.8997 157.416C78.8997 157.191 79.0122 156.967 79.1248 156.742C79.2373 156.517 79.4624 156.517 79.8001 156.517C80.0252 156.517 80.2503 156.629 80.4754 156.742C80.588 156.967 80.7005 157.191 80.7005 157.416C80.7005 157.641 80.588 157.866 80.4754 158.091C80.3629 158.316 80.1378 158.316 79.8001 158.316C79.4624 158.429 79.2373 158.316 79.1248 158.091ZM79.1248 166.977V159.779C79.1248 159.666 79.1248 159.666 79.2373 159.666H80.2503C80.3629 159.666 80.3629 159.666 80.3629 159.779V166.977C80.3629 167.09 80.3629 167.09 80.2503 167.09H79.2373C79.1248 167.09 79.1248 167.09 79.1248 166.977Z" fill="#414042"/>
<path d="M86.1029 160.116C86.4406 160.566 86.6657 161.128 86.6657 161.803V164.84C86.6657 165.515 86.4406 166.077 86.1029 166.527C85.7653 166.977 85.3151 167.202 84.6398 167.202C84.4146 167.202 84.1895 167.202 83.9644 167.089C83.7393 166.977 83.5142 166.864 83.4017 166.639V166.864C83.4017 166.977 83.4017 166.977 83.2891 166.977H82.2761C82.1636 166.977 82.1636 166.977 82.1636 166.864V156.854C82.1636 156.741 82.1636 156.741 82.2761 156.741H83.2891C83.4017 156.741 83.4017 156.741 83.4017 156.854V159.891C83.4017 159.891 83.4017 159.891 83.5142 159.891C83.8519 159.553 84.3021 159.328 84.7523 159.328C85.3151 159.441 85.7653 159.666 86.1029 160.116ZM84.9774 161.015C84.7523 160.79 84.5272 160.678 84.1895 160.678C83.8519 160.678 83.6268 160.79 83.5142 161.015C83.2891 161.24 83.2891 161.578 83.2891 161.915V164.84C83.2891 165.177 83.4017 165.515 83.5142 165.74C83.7393 165.965 83.9644 166.077 84.1895 166.077C84.5272 166.077 84.7523 165.965 84.9774 165.74C85.2025 165.515 85.3151 165.177 85.3151 164.84V161.915C85.3151 161.578 85.2025 161.24 84.9774 161.015Z" fill="#414042"/>
<path d="M91.3929 159.554H92.4059C92.5185 159.554 92.5185 159.554 92.5185 159.666V166.865C92.5185 166.977 92.5185 166.977 92.4059 166.977H91.3929C91.2804 166.977 91.2804 166.977 91.2804 166.865V166.527C91.0553 166.977 90.6051 167.202 89.9298 167.202C89.367 167.202 88.9168 166.977 88.5791 166.64C88.2415 166.302 88.0164 165.74 88.0164 164.953V159.779C88.0164 159.666 88.0163 159.666 88.1289 159.666H89.1419C89.2544 159.666 89.2544 159.666 89.2544 159.779V164.728C89.2544 165.628 89.5921 165.965 90.1549 165.965C90.4925 165.965 90.7176 165.853 90.9427 165.628C91.1678 165.403 91.1678 165.065 91.1678 164.615V159.779C91.1678 159.666 91.2804 159.554 91.3929 159.554Z" fill="#414042"/>
<path d="M96.6831 160.566H95.6701C95.6701 160.566 95.6701 160.566 95.6701 160.678V164.84C95.6701 165.29 95.7827 165.515 95.8952 165.627C96.0078 165.74 96.2329 165.852 96.458 165.852H96.5705C96.6831 165.852 96.6831 165.852 96.6831 165.965V166.865C96.6831 166.977 96.6831 166.977 96.5705 166.977H96.1203C95.5576 166.977 95.1073 166.865 94.7697 166.64C94.432 166.415 94.3195 165.965 94.3195 165.29V160.678V160.566H93.7567C93.6442 160.566 93.6442 160.566 93.6442 160.453V159.779C93.6442 159.666 93.6442 159.666 93.7567 159.666H94.3195C94.3195 159.666 94.3195 159.666 94.3195 159.554V157.866C94.3195 157.754 94.3195 157.754 94.432 157.754H95.445C95.5575 157.754 95.5576 157.754 95.5576 157.866V159.554V159.666H96.5705C96.6831 159.666 96.6831 159.666 96.6831 159.779V160.566C96.7956 160.566 96.7956 160.566 96.6831 160.566Z" fill="#414042"/>
<path d="M97.9208 158.091C97.8082 157.866 97.6957 157.641 97.6957 157.416C97.6957 157.191 97.8082 156.967 97.9208 156.742C98.0333 156.517 98.2585 156.517 98.5961 156.517C98.8212 156.517 99.0463 156.629 99.2715 156.742C99.384 156.967 99.4966 157.191 99.4966 157.416C99.4966 157.641 99.384 157.866 99.2715 158.091C99.1589 158.316 98.9338 158.316 98.5961 158.316C98.371 158.429 98.1459 158.316 97.9208 158.091ZM97.9208 166.977V159.779C97.9208 159.666 97.9208 159.666 98.0333 159.666H99.0463C99.1589 159.666 99.1589 159.666 99.1589 159.779V166.977C99.1589 167.09 99.1589 167.09 99.0463 167.09H98.0333C98.0333 167.09 97.9208 167.09 97.9208 166.977Z" fill="#414042"/>
<path d="M101.298 166.64C100.847 166.19 100.622 165.628 100.622 164.953V161.916C100.622 161.241 100.847 160.679 101.298 160.229C101.748 159.779 102.311 159.554 102.986 159.554C103.661 159.554 104.337 159.779 104.674 160.229C105.124 160.679 105.35 161.241 105.35 161.916V164.953C105.35 165.628 105.124 166.19 104.674 166.64C104.224 167.09 103.661 167.315 102.986 167.315C102.311 167.202 101.748 166.977 101.298 166.64ZM103.774 165.628C103.999 165.403 104.111 165.065 104.111 164.728V161.803C104.111 161.466 103.999 161.128 103.774 160.903C103.549 160.679 103.324 160.566 102.986 160.566C102.648 160.566 102.423 160.679 102.198 160.903C101.973 161.128 101.86 161.466 101.86 161.803V164.728C101.86 165.065 101.973 165.403 102.198 165.628C102.423 165.853 102.648 165.965 102.986 165.965C103.324 165.965 103.549 165.853 103.774 165.628Z" fill="#414042"/>
<path d="M110.977 160.116C111.315 160.566 111.427 161.129 111.427 161.916V166.978C111.427 167.09 111.427 167.09 111.315 167.09H110.302C110.189 167.09 110.189 167.09 110.189 166.978V162.029C110.189 161.579 110.077 161.241 109.964 161.016C109.852 160.791 109.514 160.679 109.289 160.679C108.951 160.679 108.726 160.791 108.614 161.016C108.388 161.241 108.388 161.579 108.276 161.916C108.276 162.029 108.276 162.029 108.276 162.029V166.978C108.276 167.09 108.276 167.09 108.163 167.09H107.15C107.038 167.09 107.038 167.09 107.038 166.978V159.779C107.038 159.667 107.038 159.667 107.15 159.667H108.163C108.276 159.667 108.276 159.667 108.276 159.779V160.229C108.276 160.229 108.276 160.229 108.388 160.229C108.726 159.779 109.176 159.554 109.852 159.554C110.189 159.442 110.64 159.667 110.977 160.116Z" fill="#414042"/>
<path d="M112.665 166.865C112.553 166.64 112.44 166.415 112.44 166.19C112.44 165.965 112.553 165.74 112.665 165.515C112.778 165.29 113.003 165.29 113.341 165.29C113.566 165.29 113.791 165.403 114.016 165.515C114.128 165.74 114.241 165.965 114.241 166.19C114.241 166.415 114.128 166.64 114.016 166.865C113.903 167.09 113.678 167.09 113.341 167.09C113.003 167.09 112.778 166.977 112.665 166.865Z" fill="#414042"/>
<path d="M178.846 168.439C178.846 168.327 178.846 168.327 178.846 168.439L179.184 165.065C179.184 164.952 179.184 164.952 179.297 164.952H180.197C180.309 164.952 180.309 164.952 180.309 165.065L179.634 168.327C179.634 168.439 179.522 168.439 179.522 168.439H178.846C178.959 168.439 178.959 168.439 178.846 168.439Z" fill="#414042"/>
<path d="M183.461 166.527C183.011 166.077 182.786 165.402 182.786 164.615V164.277C182.786 164.165 182.786 164.165 182.898 164.165H183.911C184.024 164.165 184.024 164.165 184.024 164.277V164.615C184.024 165.065 184.136 165.402 184.361 165.74C184.586 165.965 184.812 166.19 185.149 166.19C185.487 166.19 185.712 166.077 185.937 165.852C186.162 165.627 186.275 165.29 186.275 164.84C186.275 164.502 186.162 164.277 186.05 164.052C185.937 163.827 185.825 163.602 185.599 163.49C185.374 163.265 185.149 163.04 184.699 162.703C184.249 162.365 183.799 162.028 183.573 161.69C183.348 161.465 183.123 161.128 182.898 160.678C182.673 160.341 182.673 159.891 182.673 159.328C182.673 158.541 182.898 157.866 183.348 157.416C183.799 156.966 184.361 156.741 185.149 156.741C185.937 156.741 186.5 156.966 186.95 157.529C187.4 157.978 187.625 158.653 187.625 159.553V159.778C187.625 159.891 187.625 159.891 187.513 159.891H186.5C186.387 159.891 186.387 159.891 186.387 159.778V159.328C186.387 158.878 186.275 158.541 186.05 158.203C185.825 157.978 185.599 157.754 185.262 157.754C184.924 157.754 184.699 157.866 184.474 158.091C184.249 158.316 184.136 158.653 184.136 159.103C184.136 159.553 184.249 159.778 184.474 160.116C184.699 160.341 185.037 160.79 185.712 161.24C186.275 161.69 186.725 162.028 186.95 162.365C187.288 162.59 187.4 162.928 187.625 163.265C187.738 163.602 187.85 163.94 187.85 164.39C187.85 165.177 187.625 165.852 187.175 166.414C186.725 166.864 186.162 167.202 185.374 167.202C184.586 167.202 183.911 167.089 183.461 166.527Z" fill="#414042"/>
<path d="M189.539 166.527C189.089 166.077 188.864 165.402 188.864 164.615V159.328C188.864 158.541 189.089 157.866 189.539 157.416C189.989 156.966 190.552 156.741 191.34 156.741C192.128 156.741 192.69 156.966 193.141 157.416C193.591 157.866 193.816 158.541 193.816 159.328V159.553C193.816 159.666 193.816 159.666 193.703 159.666L192.69 159.778C192.578 159.778 192.578 159.778 192.578 159.666V159.328C192.578 158.878 192.465 158.653 192.24 158.316C192.015 158.091 191.79 157.978 191.34 157.978C191.002 157.978 190.664 158.091 190.439 158.316C190.214 158.541 190.102 158.878 190.102 159.328V164.727C190.102 165.177 190.214 165.402 190.439 165.74C190.664 165.965 190.889 166.077 191.34 166.077C191.677 166.077 192.015 165.965 192.24 165.74C192.465 165.515 192.578 165.177 192.578 164.727V164.277C192.578 164.165 192.578 164.165 192.69 164.165L193.703 164.277C193.816 164.277 193.816 164.277 193.816 164.39V164.615C193.816 165.402 193.591 166.077 193.141 166.527C192.69 166.977 192.015 167.314 191.34 167.314C190.552 167.314 189.989 167.089 189.539 166.527Z" fill="#414042"/>
<path d="M117.28 166.528C116.83 166.078 116.605 165.403 116.605 164.615V164.278C116.605 164.165 116.605 164.165 116.717 164.165H117.843C117.955 164.165 117.955 164.165 117.955 164.278V164.615C117.955 165.065 118.068 165.403 118.293 165.74C118.518 165.965 118.856 166.19 119.194 166.19C119.531 166.19 119.869 166.078 120.094 165.853C120.319 165.628 120.432 165.29 120.432 164.84C120.432 164.503 120.319 164.278 120.207 164.053C120.094 163.828 119.869 163.603 119.756 163.491C119.531 163.266 119.194 163.041 118.743 162.703C118.293 162.366 117.843 162.028 117.618 161.803C117.28 161.578 117.055 161.241 116.943 160.904C116.717 160.566 116.605 160.116 116.605 159.554C116.605 158.766 116.83 158.092 117.28 157.642C117.73 157.192 118.406 156.967 119.081 156.967C119.869 156.967 120.432 157.192 120.994 157.754C121.445 158.204 121.67 158.879 121.67 159.666V160.004C121.67 160.116 121.67 160.116 121.557 160.116H120.432C120.319 160.116 120.319 160.116 120.319 160.004V159.666C120.319 159.216 120.207 158.879 119.981 158.654C119.756 158.429 119.419 158.204 119.081 158.204C118.743 158.204 118.518 158.317 118.293 158.542C118.068 158.766 117.955 159.104 117.955 159.554C117.955 159.891 118.068 160.229 118.293 160.566C118.518 160.791 118.968 161.241 119.531 161.691C120.094 162.141 120.544 162.478 120.882 162.703C121.22 162.928 121.445 163.266 121.557 163.603C121.67 163.941 121.782 164.278 121.782 164.728C121.782 165.515 121.557 166.19 121.107 166.64C120.657 167.09 119.981 167.427 119.194 167.427C118.406 167.315 117.73 167.09 117.28 166.528Z" fill="#414042"/>
<path d="M127.41 160.229C127.747 160.679 127.972 161.242 127.972 161.917V164.954C127.972 165.628 127.747 166.191 127.41 166.641C127.072 167.091 126.509 167.316 125.947 167.316C125.721 167.316 125.496 167.316 125.271 167.203C125.046 167.091 124.821 166.978 124.596 166.753H124.483V169.79C124.483 169.903 124.483 169.903 124.371 169.903H123.245C123.133 169.903 123.133 169.903 123.133 169.79V159.892C123.133 159.779 123.133 159.779 123.245 159.779H124.371C124.483 159.779 124.483 159.779 124.483 159.892V160.117C124.483 160.117 124.483 160.117 124.596 160.117C124.821 159.892 125.046 159.779 125.271 159.779C125.496 159.667 125.721 159.667 125.947 159.667C126.509 159.667 126.959 159.892 127.41 160.229ZM126.284 161.129C126.059 160.904 125.834 160.792 125.496 160.792C125.159 160.792 124.934 160.904 124.708 161.129C124.483 161.354 124.371 161.692 124.371 162.029V164.841C124.371 165.178 124.483 165.516 124.708 165.741C124.934 165.966 125.159 166.078 125.496 166.078C125.834 166.078 126.059 165.966 126.284 165.741C126.509 165.516 126.622 165.178 126.622 164.841V162.029C126.509 161.692 126.509 161.354 126.284 161.129Z" fill="#414042"/>
<path d="M133.488 160.342C133.938 160.792 134.163 161.354 134.163 162.142V167.091C134.163 167.203 134.163 167.203 134.051 167.203H132.925C132.813 167.203 132.813 167.203 132.813 167.091V166.753C132.475 167.203 132.025 167.316 131.35 167.316C130.787 167.316 130.337 167.203 129.886 166.866C129.436 166.528 129.211 165.966 129.211 165.178C129.211 164.279 129.436 163.716 129.999 163.266C130.562 162.816 131.124 162.704 132.025 162.704H132.925C132.925 162.704 133.038 162.704 133.038 162.591V162.142C133.038 161.692 132.925 161.354 132.7 161.129C132.475 160.904 132.25 160.792 131.912 160.792C131.687 160.792 131.462 160.904 131.35 161.017C131.237 161.129 131.124 161.354 131.012 161.692C131.012 161.804 131.012 161.804 130.899 161.804H129.661C129.549 161.804 129.549 161.804 129.549 161.692C129.549 161.017 129.886 160.567 130.337 160.229C130.787 159.892 131.35 159.667 132.025 159.667C132.475 159.667 133.038 159.892 133.488 160.342ZM132.363 165.741C132.588 165.516 132.7 165.178 132.7 164.841V163.829C132.7 163.829 132.7 163.716 132.588 163.716H131.8C131.462 163.716 131.124 163.829 130.899 164.054C130.674 164.279 130.562 164.616 130.562 164.954C130.562 165.291 130.674 165.516 130.787 165.741C131.012 165.966 131.237 165.966 131.462 165.966C131.8 166.078 132.137 165.966 132.363 165.741Z" fill="#414042"/>
<path d="M139.003 159.779C139.115 159.779 139.115 159.892 139.115 160.004L138.89 161.129C138.89 161.242 138.777 161.242 138.665 161.242C138.552 161.242 138.44 161.129 138.215 161.129C138.102 161.129 138.102 161.129 137.99 161.129C137.652 161.129 137.427 161.354 137.202 161.579C136.977 161.917 136.864 162.254 136.864 162.704V166.978C136.864 167.091 136.864 167.091 136.752 167.091H135.626C135.513 167.091 135.513 167.091 135.513 166.978V159.892C135.513 159.779 135.513 159.779 135.626 159.779H136.752C136.864 159.779 136.864 159.779 136.864 159.892V160.792C137.202 160.117 137.652 159.667 138.215 159.667C138.552 159.667 138.777 159.779 139.003 159.779Z" fill="#414042"/>
<path d="M142.717 160.791H141.704C141.704 160.791 141.591 160.791 141.591 160.903V164.952C141.591 165.29 141.704 165.627 141.816 165.74C141.929 165.852 142.154 165.965 142.492 165.965H142.604C142.717 165.965 142.717 165.965 142.717 166.077V166.977C142.717 167.09 142.717 167.09 142.604 167.09H142.154C141.479 167.09 141.029 166.977 140.691 166.752C140.353 166.527 140.241 166.077 140.241 165.402V160.791C140.241 160.791 140.241 160.678 140.128 160.678H139.678C139.565 160.678 139.565 160.678 139.565 160.566V159.891C139.565 159.778 139.565 159.778 139.678 159.778H140.241C140.241 159.778 140.353 159.778 140.353 159.666V157.979C140.353 157.866 140.353 157.866 140.466 157.866H141.479C141.591 157.866 141.591 157.866 141.591 157.979V159.666C141.591 159.666 141.591 159.778 141.704 159.778H142.717C142.829 159.778 142.829 159.778 142.829 159.891V160.566C142.829 160.678 142.829 160.791 142.717 160.791Z" fill="#414042"/>
<path d="M148.12 160.342C148.57 160.792 148.795 161.354 148.795 162.142V167.091C148.795 167.203 148.795 167.203 148.682 167.203H147.557C147.444 167.203 147.444 167.203 147.444 167.091V166.753C147.107 167.203 146.656 167.316 145.981 167.316C145.418 167.316 144.968 167.203 144.518 166.866C144.068 166.528 143.843 165.966 143.843 165.178C143.843 164.279 144.068 163.716 144.631 163.266C145.193 162.816 145.756 162.704 146.656 162.704H147.557C147.557 162.704 147.669 162.704 147.669 162.591V162.142C147.669 161.692 147.557 161.354 147.332 161.129C147.107 160.904 146.882 160.792 146.544 160.792C146.319 160.792 146.094 160.904 145.981 161.017C145.869 161.129 145.756 161.354 145.644 161.692C145.644 161.804 145.644 161.804 145.531 161.804H144.18C144.068 161.804 144.068 161.804 144.068 161.692C144.068 161.017 144.405 160.567 144.856 160.229C145.306 159.892 145.869 159.667 146.544 159.667C147.107 159.667 147.669 159.892 148.12 160.342ZM146.994 165.741C147.219 165.516 147.332 165.178 147.332 164.841V163.829C147.332 163.829 147.332 163.716 147.219 163.716H146.431C146.094 163.716 145.756 163.829 145.531 164.054C145.306 164.279 145.193 164.616 145.193 164.954C145.193 165.291 145.306 165.516 145.418 165.741C145.644 165.966 145.869 165.966 146.094 165.966C146.431 166.078 146.769 165.966 146.994 165.741Z" fill="#414042"/>
<path d="M160.613 160.342C160.951 160.792 161.176 161.354 161.176 162.029V165.066C161.176 165.741 160.951 166.303 160.613 166.753C160.275 167.203 159.712 167.428 159.15 167.428C158.925 167.428 158.7 167.428 158.474 167.316C158.249 167.203 158.024 167.091 157.799 166.978V167.203C157.799 167.316 157.799 167.316 157.687 167.316H156.561C156.448 167.316 156.448 167.316 156.448 167.203V157.305C156.448 157.192 156.448 157.192 156.561 157.192H157.687C157.799 157.192 157.799 157.192 157.799 157.305V160.342C157.799 160.342 157.799 160.342 157.912 160.342C158.249 160.004 158.7 159.779 159.262 159.779C159.712 159.667 160.275 159.892 160.613 160.342ZM159.487 161.242C159.262 161.017 159.037 160.904 158.7 160.904C158.362 160.904 158.137 161.017 157.912 161.242C157.687 161.467 157.574 161.804 157.574 162.141V164.953C157.574 165.291 157.687 165.628 157.912 165.853C158.137 166.078 158.362 166.191 158.7 166.191C159.037 166.191 159.262 166.078 159.487 165.853C159.712 165.628 159.825 165.291 159.825 164.953V162.141C159.825 161.692 159.712 161.467 159.487 161.242Z" fill="#414042"/>
<path d="M166.128 159.779H167.253C167.366 159.779 167.366 159.779 167.366 159.892V166.978C167.366 167.09 167.366 167.09 167.253 167.09H166.128C166.015 167.09 166.015 167.09 166.015 166.978V166.528C165.678 166.978 165.227 167.203 164.665 167.203C164.102 167.203 163.652 166.978 163.201 166.641C162.864 166.303 162.639 165.741 162.639 165.066V159.892C162.639 159.779 162.639 159.779 162.751 159.779H163.877C163.989 159.779 163.989 159.779 163.989 159.892V164.841C163.989 165.628 164.327 166.078 165.002 166.078C165.34 166.078 165.565 165.966 165.79 165.741C166.015 165.516 166.015 165.178 166.015 164.728V159.892C166.015 159.892 166.015 159.779 166.128 159.779Z" fill="#414042"/>
<path d="M172.318 159.892C172.431 159.892 172.431 160.004 172.431 160.117L172.206 161.242C172.206 161.354 172.093 161.354 171.981 161.354C171.868 161.354 171.756 161.242 171.531 161.242C171.418 161.242 171.418 161.242 171.305 161.242C170.968 161.242 170.743 161.466 170.518 161.691C170.292 162.029 170.18 162.366 170.18 162.816V167.09C170.18 167.203 170.18 167.203 170.067 167.203H168.942C168.829 167.203 168.829 167.203 168.829 167.09V160.004C168.829 159.892 168.829 159.892 168.942 159.892H170.067C170.18 159.892 170.18 159.892 170.18 160.004V160.904C170.518 160.229 170.968 159.779 171.531 159.779C171.981 159.779 172.206 159.779 172.318 159.892Z" fill="#414042"/>
<path d="M176.708 159.779H177.834C177.946 159.779 177.946 159.779 177.946 159.892V166.978C177.946 167.99 177.721 168.778 177.271 169.34C176.821 169.903 176.033 170.128 174.907 170.128H174.457C174.345 170.128 174.345 170.015 174.345 170.015V169.115C174.345 169.003 174.345 169.003 174.457 169.003C175.245 169.003 175.808 168.89 176.145 168.553C176.483 168.215 176.596 167.653 176.596 166.978V166.528C176.258 166.978 175.808 167.203 175.133 167.203C174.457 167.203 174.007 166.978 173.669 166.528C173.332 166.078 173.107 165.516 173.107 164.841V162.029C173.107 161.354 173.332 160.792 173.669 160.342C174.007 159.892 174.457 159.667 175.133 159.667C175.808 159.667 176.258 159.892 176.596 160.342V160.004C176.596 159.892 176.596 159.779 176.708 159.779ZM176.258 165.628C176.483 165.403 176.596 165.179 176.596 164.729V162.029C176.596 161.692 176.483 161.354 176.258 161.129C176.033 160.904 175.808 160.792 175.47 160.792C175.133 160.792 174.907 160.904 174.682 161.129C174.457 161.354 174.345 161.692 174.345 162.029V164.729C174.345 165.066 174.457 165.403 174.682 165.628C174.907 165.853 175.133 165.966 175.47 165.966C175.808 165.966 176.145 165.853 176.258 165.628Z" fill="#414042"/>
<path d="M154.31 160.34C154.647 160.79 154.76 161.352 154.76 162.027V166.976C154.76 167.089 154.76 167.089 154.647 167.089H153.522C153.409 167.089 153.409 167.089 153.409 166.976V162.14C153.409 161.69 153.297 161.465 153.184 161.24C152.959 161.015 152.734 160.902 152.509 160.902C152.171 160.902 151.946 161.015 151.721 161.24C151.496 161.465 151.496 161.802 151.383 162.14C151.383 162.252 151.383 162.252 151.383 162.252V167.089C151.383 167.201 151.383 167.201 151.271 167.201H150.145C150.033 167.201 150.033 167.201 150.033 167.089V160.002C150.033 159.89 150.033 159.89 150.145 159.89H151.271C151.383 159.89 151.383 159.89 151.383 160.002V160.34C151.383 160.34 151.383 160.34 151.496 160.34C151.834 159.89 152.284 159.665 152.959 159.665C153.522 159.778 153.972 159.89 154.31 160.34Z" fill="#414042"/>
</svg>
