<svg width="231" height="74" viewBox="0 0 231 74" fill="none" xmlns="http://www.w3.org/2000/svg">
<path d="M20.8543 17.6198C20.6854 17.6198 20.601 17.6198 20.5166 17.5354C20.01 17.3667 19.7567 16.7761 20.01 16.2698C20.0944 16.1011 20.8543 14.4136 23.4716 12.0511C23.8938 11.7136 24.4848 11.7136 24.8225 12.1355C25.1602 12.5573 25.1602 13.148 24.7381 13.4855C22.374 15.5104 21.783 16.9448 21.783 16.9448C21.5297 17.4511 21.192 17.6198 20.8543 17.6198Z" fill="white"/>
<path d="M24.9068 63.2672C24.7379 63.2672 24.4847 63.1828 24.3158 63.0984C11.5669 55.2516 12.4956 39.8953 14.0998 31.3734C14.1842 30.7828 14.8597 30.3609 15.4507 30.4453C16.0417 30.5297 16.4638 31.2047 16.3794 31.7953C14.8597 39.6422 14.0154 53.9859 25.5822 61.0734C26.0888 61.4109 26.2577 62.0859 25.92 62.6765C25.6667 63.0984 25.2445 63.2672 24.9068 63.2672Z" fill="white"/>
<path d="M36.5581 0.744629C16.3794 0.744629 0 17.1134 0 37.279C0 57.4446 16.3794 73.8133 36.5581 73.8133C56.7368 73.8133 73.1162 57.4446 73.1162 37.279C73.1162 17.1134 56.7368 0.744629 36.5581 0.744629ZM36.5581 71.5352C33.6875 71.5352 30.9013 71.1977 28.284 70.5227C27.7774 69.679 27.2708 68.7508 26.8487 67.8227C26.2577 66.4727 25.7511 65.0383 25.4978 63.604C26.1732 63.8571 26.8487 64.1102 27.5241 64.3633C31.4079 65.5446 35.1228 66.0508 38.6689 66.0508C39.091 67.654 39.9353 69.4258 41.2017 71.1977C39.682 71.3665 38.1623 71.5352 36.5581 71.5352ZM54.9638 52.3821C55.7237 54.154 56.7368 55.9258 58.0033 57.529C54.2884 60.5665 48.0406 63.1821 40.6107 63.604C40.5263 62.0852 40.6952 60.5665 41.2017 59.0477C43.3125 53.0571 49.9824 48.6696 54.9638 47.9946C55.386 47.9102 55.8081 47.9102 56.2303 47.9102C57.9188 47.9102 59.7763 48.4165 60.9583 50.104C62.1403 51.8758 61.2116 53.8165 60.1985 55.2508C60.0296 55.4196 59.8607 55.6727 59.6919 55.8415C58.6787 54.4071 57.8344 52.9727 57.159 51.3696C56.9057 50.779 56.2303 50.5258 55.6392 50.779C54.9638 51.1165 54.7105 51.7915 54.9638 52.3821ZM43.8191 70.7758C42.5526 69.2571 41.6239 67.654 41.1173 66.0508C49.0537 65.5446 55.5548 62.6758 59.523 59.3852C60.0296 59.9758 60.6206 60.5665 61.2116 61.0727C56.568 65.8821 50.5735 69.2571 43.8191 70.7758ZM61.2116 57.7821C61.5493 57.4446 61.8871 57.0227 62.1403 56.6852C64.1667 53.9852 64.5044 51.1165 62.9846 48.8383C61.296 46.3071 58.341 45.2102 54.7105 45.6321C48.9693 46.3915 41.5395 51.2852 39.091 58.204C38.5844 59.7227 38.1623 61.579 38.3311 63.604C35.1228 63.604 31.6612 63.0977 28.284 62.0852C27.1864 61.7477 26.1732 61.3258 25.2445 60.8196C24.9068 55.9258 26.4265 50.779 29.7193 45.6321C33.6031 39.6415 35.2072 34.2415 36.5581 29.9384C38.5 23.6102 39.682 19.8134 45.6765 18.6321C55.2171 16.7759 57.4123 24.9602 57.4967 25.2977C57.5811 25.7196 58.0033 26.0571 58.4254 26.1415C59.7763 26.3946 61.7182 27.3227 63.4912 28.1665C59.6919 29.2634 54.1195 32.6384 53.4441 42.3415C53.3596 43.0165 53.8662 43.5227 54.5417 43.6071C55.2171 43.6071 55.7237 43.1852 55.8081 42.5102C56.568 30.0227 66.4463 30.0227 66.8684 30.0227C67.4594 30.0227 67.8816 29.6852 68.0504 29.179C68.2193 28.6727 67.966 28.0821 67.5439 27.829C67.2906 27.6602 62.6469 24.8759 59.4386 24.0321C58.5943 21.6696 55.0482 14.4134 45.0855 16.354C37.7401 17.7884 36.136 22.8509 34.1941 29.2634C32.9276 33.4821 31.3235 38.7134 27.6085 44.3665C26.9331 45.379 26.4265 46.3915 25.92 47.3196C25.92 47.3196 21.8673 54.3227 22.9649 62.1696C23.3026 64.7008 23.9781 66.8946 24.8224 68.7508C24.9068 69.004 25.0757 69.2571 25.1601 69.5102C11.8202 64.7852 2.36403 52.129 2.36403 37.279C2.36403 18.4634 17.7303 3.10713 36.5581 3.10713C55.4704 3.10713 70.8366 18.4634 70.8366 37.3634C70.8366 45.8008 67.7971 53.479 62.7314 59.3852C62.2248 58.7946 61.7182 58.2883 61.2116 57.7821Z" fill="white"/>
<path d="M21.7827 15.0885C21.445 14.9197 21.1073 14.9197 20.7696 15.0885C20.4319 15.2572 12.4955 19.3916 11.4823 25.2978C11.3134 26.226 11.3134 27.2385 11.5667 28.0822C12.8332 29.4322 13.4242 30.951 13.6775 31.9635C13.7619 32.0478 13.8463 32.2166 13.9308 32.301C14.8595 32.976 16.2948 32.5541 16.2948 32.5541C16.4637 32.5541 16.6325 32.4697 16.8014 32.4697C17.5613 31.5416 18.9966 30.3603 21.1073 30.0228C21.2762 29.8541 21.445 29.6853 21.6139 29.4322C23.9779 26.4791 24.2312 21.8385 22.5426 15.7635C22.3738 15.5104 22.1205 15.1729 21.7827 15.0885ZM19.672 27.9978C18.8277 29.0103 17.8145 29.601 16.8858 29.9385C15.4505 30.6135 14.6062 29.4322 14.6062 29.4322C13.8463 28.1666 13.5086 26.9853 13.7619 25.7197C14.3529 22.2603 18.4056 19.3072 20.5163 17.9572C21.6139 22.5135 21.2762 25.9728 19.672 27.9978Z" fill="white"/>
<path d="M24.4846 28.167C20.9386 27.4076 18.0679 28.167 15.4506 30.867C15.3662 30.9514 15.1973 30.9514 15.1129 30.7826C14.1842 27.4076 11.8201 25.2139 9.03396 24.117C8.52738 23.9483 7.93637 24.2014 7.68308 24.7076C7.59865 24.8764 6.24777 27.9139 7.42979 30.867C7.42979 30.6983 7.51422 30.5295 7.51422 30.4451C9.87825 31.542 11.2291 33.3139 11.9046 34.8326C12.4111 35.0014 13.0022 35.1701 13.5932 35.3389H13.6776L14.1842 35.1701C14.353 35.0857 14.5219 35.1701 14.6908 35.2545L15.7039 35.7607C15.7039 35.7607 15.7039 35.7607 15.7883 35.7607C16.0416 35.8451 16.2949 35.8451 16.5482 35.8451C16.6326 35.8451 16.7171 35.8451 16.8859 35.8451C18.1524 34.6639 20.1787 33.4826 22.9649 33.7357C22.9649 33.9045 22.8804 34.0732 22.796 34.242C25.0756 32.3014 25.3289 29.4326 25.3289 29.2639C25.4133 28.7576 24.9912 28.2514 24.4846 28.167ZM13.5087 32.9764C11.6513 32.4701 10.3004 31.6264 9.7094 30.4451C9.03396 29.1795 9.11839 27.6608 9.37168 26.6483C9.37168 26.5639 9.54054 26.4795 9.62497 26.5639C12.9177 28.3358 13.5932 31.542 13.762 32.7233C13.762 32.9764 13.6776 33.0608 13.5087 32.9764ZM22.9649 30.2764C22.7116 31.1201 22.205 32.1326 21.1918 32.892C20.0098 33.7357 18.3212 33.9889 16.2949 33.6514C16.2105 33.6514 16.1261 33.4826 16.2105 33.3982C16.7171 32.5545 18.9122 29.7701 22.8804 30.1076C22.9649 30.0233 23.0493 30.1076 22.9649 30.2764Z" fill="white"/>
<path d="M23.556 36.9418C24.4003 36.2668 23.9781 37.6168 24.4003 36.7731C25.4979 34.9168 25.5823 33.0606 25.5823 32.9762C25.5823 32.3856 25.1601 31.8793 24.5691 31.795C20.6009 31.12 17.3082 32.0481 14.6064 35.17C14.522 35.2543 14.3531 35.2543 14.2687 35.0856C13.0867 31.3731 10.3849 29.0106 7.1766 27.9981C6.58559 27.8293 5.91015 28.0825 5.74129 28.6731C5.65686 28.8418 4.0527 32.8918 6.07901 36.3512C6.24787 36.6043 5.65686 36.9418 5.91015 37.195C5.91015 36.6887 6.67002 36.1825 6.67002 35.845C9.54063 36.7731 11.1448 38.545 11.9047 40.0637C12.158 40.1481 12.4957 40.1481 12.749 40.2325H12.8334C12.8334 40.2325 13.8466 39.9793 14.0154 40.0637L15.113 40.57C15.113 40.57 15.113 40.57 15.1974 40.57C15.4507 40.57 15.7884 40.6543 16.0417 40.6543C16.1262 40.6543 16.2106 40.6543 16.2106 40.6543C17.3082 39.3043 19.3345 37.5325 22.8805 37.5325L23.556 36.9418ZM12.4957 37.7012C10.3849 37.2793 8.8652 36.3512 8.10533 35.0856C7.26103 33.7356 7.34546 32.0481 7.51432 30.9512C7.51432 30.7825 7.68318 30.7825 7.76761 30.7825C11.4825 32.6387 12.4957 36.0981 12.6645 37.4481C12.749 37.6168 12.6645 37.7856 12.4957 37.7012ZM22.965 34.2418C22.7117 35.17 22.1207 36.3512 21.0231 37.195C19.7566 38.2075 17.8992 38.545 15.5351 38.2075C15.3663 38.2075 15.2819 38.0387 15.3663 37.87C15.9573 36.9418 18.2369 33.7356 22.7117 33.9043C22.8805 33.9887 22.965 34.0731 22.965 34.2418Z" fill="white"/>
<path d="M14.1844 44.2825L15.4509 44.7044C15.4509 44.7044 15.4509 44.7044 15.5353 44.7044C15.873 44.7044 16.1263 44.7044 16.3796 44.7044C19.1658 44.7044 21.4454 44.0294 23.0495 42.6794C25.9201 40.3169 25.8357 36.7731 25.7513 36.6887C25.7513 36.0981 25.2447 35.6762 24.5693 35.5919C20.2634 35.2544 16.9706 36.3512 14.3533 39.5575C14.2688 39.6419 14.0155 39.6419 14.0155 39.4731C12.4958 36.0137 9.3719 33.9044 5.91028 33.145C5.23484 32.9763 4.64383 33.3137 4.39054 33.9044C4.30611 34.0731 2.95524 38.1231 5.4037 41.245C6.92344 43.1012 9.3719 44.1981 12.8335 44.4512H12.918C12.918 44.5356 13.9311 44.1981 14.1844 44.2825ZM15.4509 42.1731C15.9574 41.245 18.1526 37.9544 22.8807 37.87C23.0495 37.87 23.134 37.9544 23.134 38.1231C22.9651 39.0512 22.4585 40.2325 21.3609 41.0762C20.0945 42.0887 18.1526 42.595 15.6197 42.4262C15.4509 42.4262 15.3664 42.2575 15.4509 42.1731ZM12.5802 41.92C12.5802 42.0887 12.4958 42.1731 12.3269 42.1731C10.0473 41.92 8.35875 41.1606 7.43002 39.9794C6.41686 38.7137 6.33243 37.1106 6.50129 36.0137C6.50129 35.9294 6.67015 35.845 6.75458 35.845C10.8916 37.3637 12.2425 40.6544 12.5802 41.92Z" fill="white"/>
<path d="M6.24782 29.4319C5.99453 29.4319 5.74124 29.2632 5.65681 29.0101C5.15024 28.0819 5.06581 26.9007 5.3191 25.6351C5.40353 25.2976 5.74124 25.0444 6.07896 25.0444C6.41668 25.1288 6.66997 25.4663 6.66997 25.8038C6.50111 26.8163 6.58554 27.6601 6.92326 28.3351C7.09212 28.6726 6.92326 29.0944 6.58554 29.2632C6.50111 29.4319 6.33225 29.4319 6.24782 29.4319Z" fill="white"/>
<path d="M8.61172 25.7204C8.274 25.7204 7.93628 25.3829 7.93628 25.0454C7.93628 23.6954 8.274 22.4298 8.78058 21.3329C8.94944 20.9954 9.37159 20.8267 9.70931 20.9954C10.047 21.1642 10.2159 21.586 10.047 21.9235C9.54045 22.8517 9.28716 23.9485 9.28716 25.0454C9.28716 25.3829 8.94944 25.7204 8.61172 25.7204Z" fill="white"/>
<path d="M24.569 33.3982C24.4001 33.3982 24.1468 33.3139 23.978 33.1451C23.7247 32.8076 23.8091 32.3857 24.1468 32.217C24.7378 31.7951 25.4133 31.0357 25.9198 30.192C26.0887 29.8545 26.5109 29.7701 26.8486 29.9389C27.1863 30.1076 27.2707 30.5295 27.1019 30.867C26.4264 31.8795 25.751 32.7232 24.9067 33.3139C24.8223 33.3982 24.7378 33.3982 24.569 33.3982Z" fill="white"/>
<path d="M24.569 29.6852C24.4001 29.6852 24.2313 29.6009 24.0624 29.5165C23.8091 29.2634 23.8091 28.8415 24.0624 28.5884C24.0624 28.5884 24.9067 27.6602 25.4977 26.1415C25.6666 25.804 26.0043 25.6352 26.4264 25.804C26.7642 25.9727 26.933 26.3946 26.7642 26.7321C26.0043 28.504 25.0756 29.5165 25.0756 29.5165C24.9067 29.6009 24.7378 29.6852 24.569 29.6852Z" fill="white"/>
<path d="M25.2444 37.1104C24.9911 37.1104 24.8222 37.026 24.6534 36.8572C24.4001 36.5197 24.4845 36.0979 24.8222 35.9291C24.8222 35.9291 25.4132 35.5072 26.4264 34.2416C26.6797 33.9885 27.1018 33.9041 27.3551 34.1572C27.6084 34.4104 27.6929 34.8322 27.4396 35.0854C26.2575 36.5197 25.6665 36.9416 25.5821 37.026C25.4977 37.026 25.4132 37.1104 25.2444 37.1104Z" fill="white"/>
<path d="M4.89704 34.0727C4.64375 34.0727 4.39046 33.904 4.30603 33.7352C3.88388 32.8915 3.54616 31.9633 3.46173 30.9508C3.3773 30.6133 3.63059 30.1915 4.05274 30.1915C4.39046 30.1071 4.81261 30.3602 4.81261 30.7821C4.89704 31.6258 5.15033 32.3852 5.57248 33.1446C5.74134 33.4821 5.57248 33.904 5.23476 34.0727C5.15033 34.0727 5.0659 34.0727 4.89704 34.0727Z" fill="white"/>
<path d="M85.9496 26.986C85.443 26.4798 85.1897 25.7204 85.1897 24.8767V24.4548C85.1897 24.3704 85.2741 24.286 85.3586 24.286H86.5406C86.625 24.286 86.7094 24.3704 86.7094 24.4548V24.7923C86.7094 25.2985 86.7939 25.7204 87.0471 25.9735C87.3004 26.311 87.6382 26.3954 87.9759 26.3954C88.398 26.3954 88.6513 26.2267 88.9046 25.9735C89.1579 25.7204 89.3268 25.2985 89.3268 24.8767C89.3268 24.5392 89.2423 24.286 89.1579 24.0329C88.989 23.7798 88.8202 23.611 88.6513 23.3579C88.398 23.1892 88.0603 22.8517 87.5537 22.5142C86.9627 22.0923 86.5406 21.7548 86.2873 21.5017C85.9496 21.2485 85.6963 20.8267 85.5274 20.4892C85.2741 20.0673 85.1897 19.561 85.1897 19.0548C85.1897 18.211 85.443 17.4517 85.9496 16.9454C86.4561 16.4392 87.1316 16.186 87.9759 16.186C88.8202 16.186 89.4956 16.4392 90.0866 17.0298C90.5932 17.6204 90.8465 18.2954 90.8465 19.2235V19.6454C90.8465 19.7298 90.7621 19.8142 90.6776 19.8142H89.4956C89.4112 19.8142 89.3268 19.7298 89.3268 19.6454V19.2235C89.3268 18.7173 89.2423 18.3798 88.989 18.0423C88.7357 17.7048 88.398 17.6204 87.9759 17.6204C87.6382 17.6204 87.3004 17.7892 87.0471 18.0423C86.7939 18.2954 86.7094 18.7173 86.7094 19.1392C86.7094 19.561 86.7939 19.8985 87.0471 20.236C87.3004 20.5735 87.7226 20.911 88.398 21.4173C89.0735 21.9235 89.4956 22.261 89.8333 22.5985C90.171 22.936 90.4243 23.2735 90.5932 23.611C90.7621 23.9485 90.8465 24.3704 90.8465 24.8767C90.8465 25.8048 90.5932 26.4798 90.0866 27.0704C89.58 27.5767 88.9046 27.9142 87.9759 27.9142C87.216 27.8298 86.5406 27.5767 85.9496 26.986Z" fill="white"/>
<path d="M97.4318 17.2826C97.9384 17.8732 98.1917 18.6326 98.1917 19.6451C98.1917 20.5732 97.9384 21.3326 97.4318 21.9232C96.9252 22.5139 96.2498 22.767 95.4899 22.767H93.9702C93.8858 22.767 93.8858 22.767 93.8858 22.8514V27.5764C93.8858 27.6607 93.8013 27.7451 93.7169 27.7451H92.4505C92.366 27.7451 92.2816 27.6607 92.2816 27.5764V16.5232C92.2816 16.4389 92.366 16.3545 92.4505 16.3545H95.3211C96.2498 16.3545 96.9252 16.692 97.4318 17.2826ZM96.2498 20.9951C96.5031 20.6576 96.672 20.2357 96.672 19.6451C96.672 19.0545 96.5031 18.5482 96.2498 18.2107C95.9965 17.8732 95.6588 17.7045 95.1522 17.7045H93.9702C93.8858 17.7045 93.8858 17.7045 93.8858 17.7889V21.5014C93.8858 21.5857 93.8858 21.5857 93.9702 21.5857H95.1522C95.6588 21.5014 95.9965 21.3326 96.2498 20.9951Z" fill="white"/>
<path d="M99.7117 27.492V16.5232C99.7117 16.4389 99.7961 16.3545 99.8805 16.3545H101.147C101.231 16.3545 101.316 16.4389 101.316 16.5232V27.492C101.316 27.5764 101.231 27.6607 101.147 27.6607H99.8805C99.7117 27.6607 99.7117 27.6607 99.7117 27.492Z" fill="white"/>
<path d="M107.563 27.576L106.044 22.7666C106.044 22.7666 106.044 22.6822 105.959 22.6822H104.862C104.777 22.6822 104.777 22.6822 104.777 22.7666V27.576C104.777 27.6603 104.693 27.7447 104.608 27.7447H103.342C103.258 27.7447 103.173 27.6603 103.173 27.576V16.6072C103.173 16.5229 103.258 16.4385 103.342 16.4385H106.213C106.804 16.4385 107.226 16.6072 107.648 16.8604C108.07 17.1135 108.408 17.5354 108.661 18.0416C108.914 18.5478 108.999 19.0541 108.999 19.7291C108.999 20.4041 108.83 20.9947 108.577 21.501C108.323 22.0072 107.901 22.3447 107.395 22.5978C107.395 22.5978 107.31 22.6822 107.395 22.6822L109.083 27.6603V27.7447C109.083 27.8291 108.999 27.8291 108.914 27.8291H107.648C107.648 27.6603 107.563 27.6603 107.563 27.576ZM104.777 17.7885V21.4166C104.777 21.501 104.777 21.501 104.862 21.501H106.044C106.466 21.501 106.804 21.3322 107.141 20.9947C107.395 20.6572 107.563 20.2353 107.563 19.6447C107.563 19.0541 107.395 18.6322 107.141 18.2947C106.888 17.9572 106.55 17.7885 106.044 17.7885H104.777C104.862 17.7041 104.777 17.7041 104.777 17.7885Z" fill="white"/>
<path d="M110.603 27.492V16.5232C110.603 16.4389 110.687 16.3545 110.772 16.3545H112.038C112.123 16.3545 112.207 16.4389 112.207 16.5232V27.492C112.207 27.5764 112.123 27.6607 112.038 27.6607H110.772C110.603 27.6607 110.603 27.6607 110.603 27.492Z" fill="white"/>
<path d="M119.721 16.5232V17.5357C119.721 17.6201 119.637 17.7045 119.552 17.7045H117.442C117.357 17.7045 117.357 17.7045 117.357 17.7889V27.5764C117.357 27.6607 117.273 27.7451 117.188 27.7451H115.922C115.838 27.7451 115.753 27.6607 115.753 27.5764V17.7889C115.753 17.7045 115.753 17.7045 115.669 17.7045H113.642C113.558 17.7045 113.474 17.6201 113.474 17.5357V16.5232C113.474 16.4389 113.558 16.3545 113.642 16.3545H119.468C119.721 16.3545 119.721 16.4389 119.721 16.5232Z" fill="white"/>
<path d="M129.515 26.901C128.924 27.4072 128.249 27.7447 127.32 27.7447H124.618C124.534 27.7447 124.449 27.6603 124.449 27.576V16.6072C124.449 16.5229 124.534 16.4385 124.618 16.4385H127.067C128.08 16.4385 128.84 16.6916 129.346 17.1979C129.937 17.7041 130.191 18.4635 130.191 19.476C130.191 20.6572 129.769 21.4166 128.924 21.9228C128.84 21.9228 128.84 22.0072 128.924 22.0072C129.346 22.2603 129.684 22.5978 129.937 23.1041C130.191 23.526 130.275 24.1166 130.275 24.7916C130.36 25.551 130.106 26.3103 129.515 26.901ZM126.054 17.7885V21.2478C126.054 21.3322 126.054 21.3322 126.138 21.3322H127.151C127.658 21.3322 128.08 21.1635 128.333 20.9103C128.587 20.5728 128.755 20.151 128.755 19.6447C128.755 19.0541 128.587 18.6322 128.333 18.2947C128.08 17.9572 127.658 17.7885 127.151 17.7885H126.054C126.054 17.7041 126.054 17.7041 126.054 17.7885ZM128.418 25.8041C128.671 25.4666 128.84 24.9603 128.84 24.3697C128.84 23.7791 128.671 23.2728 128.418 22.9353C128.164 22.5978 127.742 22.4291 127.236 22.4291H126.138C126.054 22.4291 126.054 22.4291 126.054 22.5135V26.3103C126.054 26.3947 126.054 26.3947 126.138 26.3947H127.236C127.742 26.3103 128.08 26.1416 128.418 25.8041Z" fill="white"/>
<path d="M132.47 26.9855C131.964 26.4793 131.626 25.7199 131.626 24.8762V19.223C131.626 18.2949 131.879 17.6199 132.47 17.0293C132.977 16.523 133.737 16.1855 134.581 16.1855C135.51 16.1855 136.185 16.4387 136.776 17.0293C137.283 17.5355 137.621 18.2949 137.621 19.223V24.8762C137.621 25.8043 137.367 26.4793 136.776 26.9855C136.27 27.4918 135.51 27.8293 134.581 27.8293C133.652 27.8293 132.977 27.5762 132.47 26.9855ZM135.594 26.0574C135.847 25.8043 136.016 25.3824 136.016 24.9605V19.1387C136.016 18.7168 135.847 18.2949 135.594 18.0418C135.341 17.7887 135.003 17.6199 134.581 17.6199C134.159 17.6199 133.821 17.7887 133.568 18.0418C133.315 18.2949 133.146 18.7168 133.146 19.1387V24.9605C133.146 25.3824 133.23 25.8043 133.568 26.0574C133.821 26.3105 134.159 26.4793 134.581 26.4793C135.003 26.4793 135.341 26.3105 135.594 26.0574Z" fill="white"/>
<path d="M144.966 16.5232V17.5357C144.966 17.6201 144.881 17.7045 144.797 17.7045H142.686C142.602 17.7045 142.602 17.7045 142.602 17.7889V27.5764C142.602 27.6607 142.517 27.7451 142.433 27.7451H141.166C141.082 27.7451 140.998 27.6607 140.998 27.5764V17.7889C140.998 17.7045 140.998 17.7045 140.913 17.7045H138.887C138.802 17.7045 138.718 17.6201 138.718 17.5357V16.5232C138.718 16.4389 138.802 16.3545 138.887 16.3545H144.713C144.881 16.3545 144.966 16.4389 144.966 16.5232Z" fill="white"/>
<path d="M152.058 16.5232V17.5357C152.058 17.6201 151.973 17.7045 151.889 17.7045H149.778C149.694 17.7045 149.694 17.7045 149.694 17.7889V27.5764C149.694 27.6607 149.609 27.7451 149.525 27.7451H148.259C148.174 27.7451 148.09 27.6607 148.09 27.5764V17.7889C148.09 17.7045 148.09 17.7045 148.005 17.7045H146.063C145.979 17.7045 145.895 17.6201 145.895 17.5357V16.5232C145.895 16.4389 145.979 16.3545 146.063 16.3545H151.889C151.973 16.3545 152.058 16.4389 152.058 16.5232Z" fill="white"/>
<path d="M153.409 27.492V16.5232C153.409 16.4389 153.493 16.3545 153.578 16.3545H154.844C154.928 16.3545 155.013 16.4389 155.013 16.5232V26.3107C155.013 26.3951 155.013 26.3951 155.097 26.3951H158.728C158.812 26.3951 158.897 26.4795 158.897 26.5639V27.5764C158.897 27.6607 158.812 27.7451 158.728 27.7451H153.662C153.493 27.6607 153.409 27.6607 153.409 27.492Z" fill="white"/>
<path d="M159.995 27.492V16.5232C159.995 16.4389 160.079 16.3545 160.163 16.3545H161.43C161.514 16.3545 161.599 16.4389 161.599 16.5232V27.492C161.599 27.5764 161.514 27.6607 161.43 27.6607H160.163C160.079 27.6607 159.995 27.6607 159.995 27.492Z" fill="white"/>
<path d="M168.353 16.3539H169.535C169.619 16.3539 169.704 16.4383 169.704 16.5227V27.4914C169.704 27.5758 169.619 27.6601 169.535 27.6601H168.184C168.1 27.6601 168.015 27.5758 168.015 27.4914L165.229 20.0664C165.229 20.0664 165.229 20.0664 165.144 20.0664V27.407C165.144 27.4914 165.06 27.5758 164.976 27.5758H163.794C163.709 27.5758 163.625 27.4914 163.625 27.407V16.4383C163.625 16.3539 163.709 16.2695 163.794 16.2695H165.144C165.229 16.2695 165.313 16.3539 165.313 16.4383L168.1 23.8633C168.1 23.8633 168.1 23.9477 168.184 23.8633C168.268 23.7789 168.184 23.8633 168.184 23.7789V16.4383C168.184 16.4383 168.184 16.3539 168.353 16.3539Z" fill="white"/>
<path d="M172.237 27.0701C171.73 26.5639 171.477 25.8889 171.477 25.0451V19.1389C171.477 18.2951 171.73 17.6201 172.237 17.1139C172.743 16.6076 173.503 16.3545 174.348 16.3545C175.192 16.3545 175.952 16.6076 176.458 17.1139C176.965 17.6201 177.303 18.2951 177.303 19.2232V19.8982C177.303 19.9826 177.218 20.067 177.134 20.067H175.867C175.783 20.067 175.698 19.9826 175.698 19.8982V19.2232C175.698 18.8014 175.614 18.4639 175.276 18.1264C175.023 17.8732 174.685 17.7045 174.263 17.7045C173.841 17.7045 173.503 17.8732 173.25 18.1264C172.997 18.3795 172.828 18.717 172.828 19.2232V25.2139C172.828 25.6357 172.912 25.9732 173.25 26.3107C173.503 26.5639 173.841 26.7326 174.263 26.7326C174.685 26.7326 175.023 26.5639 175.276 26.3107C175.53 26.0576 175.698 25.7201 175.698 25.2139V23.442C175.698 23.3576 175.698 23.3576 175.614 23.3576H174.348C174.263 23.3576 174.179 23.2732 174.179 23.1889V22.1764C174.179 22.092 174.263 22.0076 174.348 22.0076H177.049C177.134 22.0076 177.218 22.092 177.218 22.1764V25.1295C177.218 25.9732 176.965 26.6482 176.374 27.1545C175.867 27.6607 175.107 27.9139 174.263 27.9139C173.503 27.8295 172.828 27.5764 172.237 27.0701Z" fill="white"/>
<path d="M182.875 27.0701C182.368 26.5639 182.115 25.8889 182.115 25.0451V19.1389C182.115 18.2951 182.368 17.6201 182.875 17.1139C183.381 16.6076 184.141 16.3545 184.985 16.3545C185.83 16.3545 186.59 16.6076 187.096 17.1139C187.603 17.6201 187.941 18.2951 187.941 19.2232V19.8982C187.941 19.9826 187.856 20.067 187.772 20.067H186.59C186.505 20.067 186.421 19.9826 186.421 19.8982V19.2232C186.421 18.8014 186.336 18.4639 185.999 18.1264C185.745 17.8732 185.408 17.7045 184.985 17.7045C184.563 17.7045 184.226 17.8732 183.972 18.1264C183.719 18.3795 183.55 18.717 183.55 19.2232V25.2139C183.55 25.6357 183.635 25.9732 183.972 26.3107C184.226 26.5639 184.563 26.7326 184.985 26.7326C185.408 26.7326 185.745 26.5639 185.999 26.3107C186.252 26.0576 186.421 25.7201 186.421 25.2139V23.442C186.421 23.3576 186.421 23.3576 186.336 23.3576H185.07C184.985 23.3576 184.901 23.2732 184.901 23.1889V22.1764C184.901 22.092 184.985 22.0076 185.07 22.0076H187.772C187.856 22.0076 187.941 22.092 187.941 22.1764V25.1295C187.941 25.9732 187.687 26.6482 187.096 27.1545C186.59 27.6607 185.83 27.9139 184.985 27.9139C184.141 27.8295 183.466 27.5764 182.875 27.0701Z" fill="white"/>
<path d="M194.02 27.576L192.5 22.7666C192.5 22.7666 192.5 22.6822 192.416 22.6822H191.318C191.234 22.6822 191.234 22.6822 191.234 22.7666V27.576C191.234 27.6603 191.149 27.7447 191.065 27.7447H189.798C189.714 27.7447 189.629 27.6603 189.629 27.576V16.6072C189.629 16.5229 189.714 16.4385 189.798 16.4385H192.669C193.26 16.4385 193.682 16.6072 194.104 16.8604C194.526 17.1135 194.864 17.5354 195.117 18.0416C195.371 18.5478 195.455 19.0541 195.455 19.7291C195.455 20.4041 195.286 20.9947 195.033 21.501C194.78 22.0072 194.357 22.3447 193.851 22.5978C193.851 22.5978 193.766 22.6822 193.851 22.6822L195.539 27.6603V27.7447C195.539 27.8291 195.455 27.8291 195.371 27.8291H194.189C194.104 27.6603 194.104 27.6603 194.02 27.576ZM191.318 17.7885V21.4166C191.318 21.501 191.318 21.501 191.402 21.501H192.584C193.007 21.501 193.344 21.3322 193.682 20.9947C193.935 20.6572 194.104 20.2353 194.104 19.6447C194.104 19.0541 193.935 18.6322 193.682 18.2947C193.429 17.9572 193.091 17.7885 192.584 17.7885H191.318C191.318 17.7041 191.318 17.7041 191.318 17.7885Z" fill="white"/>
<path d="M197.65 26.9855C197.144 26.4793 196.806 25.7199 196.806 24.8762V19.223C196.806 18.2949 197.059 17.6199 197.65 17.0293C198.157 16.523 198.917 16.1855 199.761 16.1855C200.69 16.1855 201.365 16.4387 201.956 17.0293C202.463 17.5355 202.8 18.2949 202.8 19.223V24.8762C202.8 25.8043 202.547 26.4793 201.956 26.9855C201.45 27.4918 200.69 27.8293 199.761 27.8293C198.917 27.8293 198.157 27.5762 197.65 26.9855ZM200.774 26.0574C201.027 25.8043 201.196 25.3824 201.196 24.9605V19.1387C201.196 18.7168 201.027 18.2949 200.774 18.0418C200.521 17.7887 200.183 17.6199 199.761 17.6199C199.339 17.6199 199.001 17.7887 198.748 18.0418C198.494 18.2949 198.326 18.7168 198.326 19.1387V24.9605C198.326 25.3824 198.41 25.8043 198.748 26.0574C199.001 26.3105 199.339 26.4793 199.761 26.4793C200.183 26.4793 200.521 26.3105 200.774 26.0574Z" fill="white"/>
<path d="M205.249 26.9008C204.742 26.3102 204.489 25.5508 204.489 24.5383V16.4383C204.489 16.3539 204.573 16.2695 204.658 16.2695H205.924C206.008 16.2695 206.093 16.3539 206.093 16.4383V24.707C206.093 25.2133 206.262 25.6352 206.515 25.9727C206.768 26.3102 207.106 26.4789 207.528 26.4789C207.95 26.4789 208.288 26.3102 208.541 25.9727C208.795 25.6352 208.964 25.2133 208.964 24.707V16.4383C208.964 16.3539 209.048 16.2695 209.132 16.2695H210.399C210.483 16.2695 210.568 16.3539 210.568 16.4383V24.5383C210.568 25.4664 210.314 26.3102 209.723 26.9008C209.217 27.4914 208.457 27.7445 207.613 27.7445C206.515 27.8289 205.755 27.4914 205.249 26.9008Z" fill="white"/>
<path d="M217.154 17.2826C217.66 17.8732 217.913 18.6326 217.913 19.6451C217.913 20.5732 217.66 21.3326 217.154 21.9232C216.647 22.5139 215.972 22.767 215.212 22.767H213.692C213.608 22.767 213.608 22.767 213.608 22.8514V27.5764C213.608 27.6607 213.523 27.7451 213.439 27.7451H212.172C212.088 27.7451 212.003 27.6607 212.003 27.5764V16.5232C212.003 16.4389 212.088 16.3545 212.172 16.3545H215.043C215.972 16.3545 216.647 16.692 217.154 17.2826ZM215.972 20.9951C216.225 20.6576 216.394 20.2357 216.394 19.6451C216.394 19.0545 216.225 18.5482 215.972 18.2107C215.718 17.8732 215.381 17.7045 214.874 17.7045H213.692C213.608 17.7045 213.608 17.7045 213.608 17.7889V21.5014C213.608 21.5857 213.608 21.5857 213.692 21.5857H214.874C215.296 21.5014 215.634 21.3326 215.972 20.9951Z" fill="white"/>
<path d="M222.641 20.8258V16.3539C222.641 16.2695 222.641 16.2695 222.726 16.2695H223.232C223.317 16.2695 223.317 16.2695 223.317 16.3539V20.8258C223.317 20.9102 223.317 20.9102 223.232 20.9102L222.641 20.8258Z" fill="white"/>
<path d="M225.934 16.2695H226.441C226.525 16.2695 226.525 16.2695 226.525 16.3539V20.8258C226.525 20.9102 226.525 20.9102 226.441 20.9102H225.85C225.85 20.9102 225.765 20.9102 225.765 20.8258L224.668 17.8727V20.8258C224.668 20.9102 224.668 20.9102 224.583 20.9102H224.077C223.992 20.9102 223.992 20.9102 223.992 20.8258V16.3539C223.992 16.2695 223.992 16.2695 224.077 16.2695H224.668C224.668 16.2695 224.752 16.2695 224.752 16.3539L225.85 19.307L225.934 16.2695Z" fill="white"/>
<path d="M227.538 20.573C227.285 20.3199 227.201 20.0668 227.201 19.7293V17.3668C227.201 17.0293 227.285 16.6918 227.538 16.523C227.792 16.2699 228.045 16.1855 228.383 16.1855C228.72 16.1855 229.058 16.2699 229.227 16.523C229.48 16.7762 229.565 17.0293 229.565 17.3668V17.4512C229.565 17.5355 229.565 17.5355 229.48 17.5355H228.974C228.889 17.5355 228.889 17.5355 228.889 17.4512V17.2824C228.889 17.1137 228.805 16.9449 228.72 16.8605C228.636 16.7762 228.467 16.6918 228.298 16.6918C228.129 16.6918 227.961 16.7762 227.876 16.8605C227.792 16.9449 227.707 17.1137 227.707 17.2824V19.7293C227.707 19.898 227.792 20.0668 227.876 20.1512C227.961 20.2355 228.129 20.3199 228.298 20.3199C228.467 20.3199 228.636 20.2355 228.72 20.1512C228.805 20.0668 228.889 19.898 228.889 19.7293V19.5605C228.889 19.4762 228.889 19.4762 228.974 19.4762H229.48C229.565 19.4762 229.565 19.4762 229.565 19.5605V19.6449C229.565 19.9824 229.48 20.3199 229.227 20.4887C228.974 20.7418 228.72 20.8262 228.383 20.8262C228.045 20.9105 227.792 20.8262 227.538 20.573Z" fill="white"/>
<path d="M230.24 20.7418C230.156 20.6574 230.156 20.573 230.156 20.4043C230.156 20.3199 230.156 20.1512 230.24 20.0668C230.325 19.9824 230.409 19.9824 230.578 19.9824C230.662 19.9824 230.831 19.9824 230.916 20.0668C231 20.1512 231 20.2355 231 20.4043C231 20.4887 231 20.6574 230.916 20.7418C230.831 20.8262 230.747 20.8262 230.578 20.8262C230.409 20.8262 230.24 20.8262 230.24 20.7418Z" fill="white"/>
<path d="M230.915 37.2793H85.1896V38.2918H230.915V37.2793Z" fill="white"/>
<path d="M85.1896 55.9253V48.4159C85.1896 48.3315 85.1896 48.3315 85.274 48.3315H86.9626C87.5536 48.3315 87.9758 48.5003 88.3135 48.9222C88.6512 49.2597 88.8201 49.8503 88.8201 50.4409V53.9003C88.8201 54.5753 88.6512 55.0815 88.3135 55.419C87.9758 55.7565 87.4692 56.0097 86.9626 56.0097H85.274C85.1896 56.0097 85.1896 56.0097 85.1896 55.9253ZM86.2027 55.0815H86.9626C87.2159 55.0815 87.4692 54.9972 87.638 54.744C87.8069 54.4909 87.8913 54.2378 87.8913 53.8159V50.3565C87.8913 50.019 87.8069 49.6815 87.638 49.4284C87.4692 49.1753 87.3003 49.0909 86.9626 49.0909H86.2027C86.2027 49.0909 86.1183 49.0909 86.1183 49.1753L86.2027 55.0815Z" fill="white"/>
<path d="M90.0866 49.2599C90.0022 49.0911 89.9177 48.9224 89.9177 48.7536C89.9177 48.5849 90.0022 48.4161 90.0866 48.2474C90.171 48.0786 90.3399 48.0786 90.5932 48.0786C90.762 48.0786 90.9309 48.163 91.0997 48.2474C91.1842 48.4161 91.2686 48.5849 91.2686 48.7536C91.2686 48.9224 91.1842 49.0911 91.0997 49.2599C91.0153 49.4286 90.8465 49.4286 90.5932 49.4286C90.3399 49.513 90.171 49.4286 90.0866 49.2599ZM90.0022 55.9255V50.5255C90.0022 50.4411 90.0022 50.4411 90.0866 50.4411H90.8465C90.9309 50.4411 90.9309 50.4411 90.9309 50.5255V55.9255C90.9309 56.0099 90.9309 56.0099 90.8465 56.0099H90.0866C90.0866 56.0099 90.0022 56.0099 90.0022 55.9255Z" fill="white"/>
<path d="M92.4505 55.6726C92.1128 55.4194 92.0284 54.9976 92.0284 54.5757V54.4913C92.0284 54.4069 92.0284 54.4069 92.1128 54.4069H92.8727C92.9571 54.4069 92.9571 54.4069 92.9571 54.4913V54.5757C92.9571 54.7444 93.0416 54.9132 93.2104 55.0819C93.3793 55.2507 93.5481 55.2507 93.717 55.2507C93.8858 55.2507 94.0547 55.1663 94.2236 55.0819C94.3924 54.9976 94.3924 54.7444 94.3924 54.5757C94.3924 54.4069 94.308 54.2382 94.2236 54.1538C94.1391 54.0694 94.0547 53.9851 93.8858 53.9007C93.8014 53.8163 93.5481 53.7319 93.2948 53.6476C93.0416 53.5632 92.7883 53.3944 92.6194 53.3101C92.4505 53.2257 92.2817 53.0569 92.1128 52.8038C91.944 52.5507 91.944 52.2976 91.944 51.9601C91.944 51.4538 92.1128 51.0319 92.3661 50.7788C92.7038 50.5257 93.0416 50.3569 93.5481 50.3569C94.0547 50.3569 94.4769 50.5257 94.7301 50.7788C95.0679 51.0319 95.1523 51.4538 95.1523 51.9601C95.1523 52.0444 95.1523 52.0444 95.0679 52.0444H94.5613C94.4769 52.0444 94.4769 52.0444 94.4769 51.9601V51.8757C94.4769 51.7069 94.3924 51.5382 94.308 51.3694C94.1391 51.2007 93.9703 51.2007 93.8014 51.2007C93.5481 51.2007 93.3793 51.2851 93.2948 51.3694C93.2104 51.5382 93.126 51.7069 93.126 51.8757C93.126 52.0444 93.126 52.1288 93.2104 52.2976C93.2948 52.3819 93.3793 52.4663 93.5481 52.5507C93.6326 52.6351 93.8858 52.7194 94.1391 52.8038C94.3924 52.9726 94.6457 53.0569 94.8146 53.2257C94.9834 53.3101 95.1523 53.4788 95.3212 53.7319C95.49 53.9851 95.5744 54.2382 95.5744 54.5757C95.5744 55.0819 95.4056 55.4194 95.0679 55.7569C94.7301 56.0101 94.308 56.1788 93.8014 56.1788C93.2104 56.0944 92.7883 55.9257 92.4505 55.6726Z" fill="white"/>
<path d="M98.2763 51.1157H97.5164C97.5164 51.1157 97.5164 51.1157 97.5164 51.2001V54.322C97.5164 54.6595 97.6008 54.8282 97.6853 54.9126C97.7697 54.997 97.9385 55.0813 98.1074 55.0813H98.1918C98.2763 55.0813 98.2763 55.0813 98.2763 55.1657V55.8407C98.2763 55.9251 98.2763 55.9251 98.1918 55.9251H97.8541C97.432 55.9251 97.0942 55.8407 96.841 55.672C96.5877 55.5032 96.5032 55.1657 96.5032 54.6595V51.2001C96.5032 51.2001 96.5032 51.1157 96.4188 51.1157H95.9967C95.9122 51.1157 95.9122 51.1157 95.9122 51.0313V50.5251C95.9122 50.4407 95.9122 50.4407 95.9967 50.4407H96.4188C96.4188 50.4407 96.5032 50.4407 96.5032 50.3563V49.0907C96.5032 49.0063 96.5032 49.0063 96.5877 49.0063H97.3475C97.432 49.0063 97.432 49.0063 97.432 49.0907V50.3563V50.4407H98.1918C98.2763 50.4407 98.2763 50.4407 98.2763 50.5251V51.1157C98.2763 51.1157 98.3607 51.1157 98.2763 51.1157Z" fill="white"/>
<path d="M99.2049 49.2599C99.1204 49.0911 99.036 48.9224 99.036 48.7536C99.036 48.5849 99.1204 48.4161 99.2049 48.2474C99.2893 48.0786 99.4582 48.0786 99.7114 48.0786C99.8803 48.0786 100.049 48.163 100.218 48.2474C100.302 48.4161 100.387 48.5849 100.387 48.7536C100.387 48.9224 100.302 49.0911 100.218 49.2599C100.134 49.4286 99.9647 49.4286 99.7114 49.4286C99.4582 49.513 99.3737 49.4286 99.2049 49.2599ZM99.2049 55.9255V50.5255C99.2049 50.4411 99.2049 50.4411 99.2893 50.4411H100.049C100.134 50.4411 100.134 50.4411 100.134 50.5255V55.9255C100.134 56.0099 100.134 56.0099 100.049 56.0099H99.2893C99.2049 56.0099 99.2049 56.0099 99.2049 55.9255Z" fill="white"/>
<path d="M101.316 55.9253V48.4159C101.316 48.3315 101.316 48.3315 101.4 48.3315H102.16C102.244 48.3315 102.244 48.3315 102.244 48.4159V55.9253C102.244 56.0097 102.244 56.0097 102.16 56.0097H101.4C101.316 56.0097 101.316 56.0097 101.316 55.9253Z" fill="white"/>
<path d="M103.342 55.9253V48.4159C103.342 48.3315 103.342 48.3315 103.426 48.3315H104.186C104.271 48.3315 104.271 48.3315 104.271 48.4159V55.9253C104.271 56.0097 104.271 56.0097 104.186 56.0097H103.426C103.342 56.0097 103.342 56.0097 103.342 55.9253Z" fill="white"/>
<path d="M108.661 53.6476H106.297C106.297 53.6476 106.297 53.6476 106.297 53.7319V54.3226C106.297 54.5757 106.382 54.8288 106.466 54.9976C106.635 55.1663 106.804 55.2507 106.973 55.2507C107.141 55.2507 107.31 55.1663 107.479 55.0819C107.648 54.9976 107.732 54.8288 107.732 54.5757C107.732 54.4913 107.817 54.4913 107.817 54.4913L108.577 54.5757H108.661V54.6601C108.577 55.1663 108.408 55.5038 108.155 55.7569C107.817 56.0101 107.479 56.1788 106.973 56.1788C106.466 56.1788 106.044 56.0101 105.706 55.6726C105.368 55.3351 105.2 54.9132 105.2 54.4069V52.1288C105.2 51.6226 105.368 51.2007 105.706 50.8632C106.044 50.5257 106.466 50.3569 106.973 50.3569C107.479 50.3569 107.986 50.5257 108.239 50.8632C108.577 51.2007 108.746 51.6226 108.746 52.1288V53.5632C108.83 53.6476 108.746 53.6476 108.661 53.6476ZM106.466 51.4538C106.297 51.6226 106.297 51.8757 106.297 52.1288V52.7194V52.8038H107.732C107.732 52.8038 107.817 52.8038 107.817 52.7194V52.1288C107.817 51.8757 107.732 51.6226 107.648 51.4538C107.564 51.2851 107.31 51.2007 107.057 51.2007C106.804 51.2007 106.635 51.2851 106.466 51.4538Z" fill="white"/>
<path d="M112.207 50.4413C112.291 50.4413 112.291 50.5257 112.291 50.6101L112.123 51.4538C112.123 51.5382 112.038 51.5382 112.038 51.5382C111.954 51.5382 111.869 51.4538 111.785 51.4538C111.7 51.4538 111.7 51.4538 111.616 51.4538C111.363 51.4538 111.194 51.6226 111.109 51.7913C110.941 52.0444 110.856 52.2976 110.856 52.6351V55.8413C110.856 55.9257 110.856 55.9257 110.772 55.9257H110.012C109.927 55.9257 109.927 55.9257 109.927 55.8413V50.5257C109.927 50.4413 109.927 50.4413 110.012 50.4413H110.772C110.856 50.4413 110.856 50.4413 110.856 50.5257V51.2007C111.025 50.6944 111.363 50.3569 111.869 50.3569C111.954 50.3569 112.038 50.3569 112.207 50.4413Z" fill="white"/>
<path d="M112.883 58.2039C112.883 58.2039 112.883 58.1195 112.883 58.2039V57.4445C112.883 57.3601 112.883 57.3601 112.967 57.3601C113.22 57.3601 113.389 57.2758 113.474 57.2758C113.558 57.2758 113.727 57.107 113.811 56.9383C113.896 56.7695 113.98 56.5164 113.98 56.0945V56.0102L112.629 50.5258C112.629 50.4414 112.629 50.4414 112.714 50.4414H113.558C113.642 50.4414 113.642 50.4414 113.642 50.5258L114.402 54.4914L115.162 50.5258C115.162 50.4414 115.247 50.4414 115.247 50.4414H116.091H116.175V50.5258L114.74 56.432C114.571 56.9383 114.487 57.3602 114.318 57.5289C114.149 57.782 113.98 57.9508 113.727 58.0352C113.474 58.1195 113.136 58.2039 112.714 58.2039H112.883Z" fill="white"/>
<path d="M124.112 55.9255C124.112 56.0099 124.112 56.0099 124.112 55.9255C124.112 56.0099 124.027 56.0099 124.112 55.9255L123.183 56.0099C123.098 56.0099 123.099 56.0099 123.014 55.9255L122.676 55.4192C122.676 55.4192 122.676 55.4192 122.592 55.4192C122.339 55.6724 122.085 55.8411 121.748 55.9255C121.494 56.0099 121.157 56.0942 120.819 56.0942C120.228 56.0942 119.806 55.9255 119.468 55.588C119.13 55.2505 118.961 54.8286 118.961 54.1536C118.961 53.6474 119.046 53.2255 119.299 52.888C119.552 52.5505 119.806 52.213 120.228 51.8755C120.228 51.8755 120.228 51.8755 120.228 51.7911C119.975 51.4536 119.806 51.1161 119.721 50.9474C119.637 50.7786 119.552 50.5255 119.468 50.4411C119.468 50.2724 119.384 50.1036 119.384 49.9349C119.384 49.4286 119.552 48.9224 119.806 48.5849C120.143 48.2474 120.481 48.0786 120.988 48.0786C121.494 48.0786 121.916 48.2474 122.254 48.5849C122.592 48.9224 122.761 49.3442 122.761 49.9349C122.761 50.3567 122.676 50.7786 122.423 51.1161C122.17 51.4536 121.916 51.7911 121.494 52.1286C121.494 52.1286 121.494 52.1286 121.494 52.213L122.001 52.9724L122.592 53.8161C122.592 53.8161 122.592 53.8161 122.676 53.8161C122.676 53.7317 122.761 53.7317 122.761 53.6474C122.93 53.3099 123.014 53.1411 123.099 52.9724C123.099 52.9724 123.098 52.888 123.183 52.888H123.267L123.858 53.2255C123.943 53.2255 123.943 53.3099 123.858 53.3942C123.69 53.8161 123.436 54.238 123.099 54.6599V54.7442L124.112 55.9255ZM122.085 54.6599C122.085 54.6599 122.085 54.5755 122.085 54.6599L120.819 52.8036C120.819 52.8036 120.819 52.8036 120.734 52.8036C120.481 53.0567 120.312 53.2255 120.143 53.4786C119.975 53.7317 119.975 53.9005 119.975 54.238C119.975 54.5755 120.059 54.8286 120.228 54.9974C120.397 55.1661 120.65 55.2505 120.903 55.2505C121.325 55.1661 121.748 54.9974 122.085 54.6599ZM120.65 49.3442C120.481 49.513 120.481 49.6817 120.481 50.0192C120.481 50.188 120.481 50.3567 120.566 50.5255C120.65 50.6942 120.734 50.9474 120.988 51.2849C120.988 51.2849 120.988 51.2849 121.072 51.2849C121.325 51.0317 121.494 50.863 121.663 50.6099C121.832 50.4411 121.832 50.188 121.832 49.9349C121.832 49.6817 121.748 49.513 121.663 49.3442C121.579 49.1755 121.41 49.0911 121.157 49.0911C120.903 49.1755 120.734 49.2599 120.65 49.3442Z" fill="white"/>
<path d="M127.32 55.9253V48.4159C127.32 48.3315 127.32 48.3315 127.404 48.3315H129.093C129.684 48.3315 130.106 48.5003 130.444 48.9222C130.782 49.2597 130.951 49.8503 130.951 50.4409V53.9003C130.951 54.5753 130.782 55.0815 130.444 55.419C130.106 55.7565 129.6 56.0097 129.093 56.0097H127.404C127.32 56.0097 127.32 56.0097 127.32 55.9253ZM128.333 55.0815H129.093C129.346 55.0815 129.6 54.9972 129.769 54.744C129.937 54.4909 130.022 54.2378 130.022 53.8159V50.3565C130.022 50.019 129.937 49.6815 129.769 49.4284C129.6 49.1753 129.431 49.0909 129.093 49.0909H128.333C128.333 49.0909 128.333 49.0909 128.333 49.1753V55.0815Z" fill="white"/>
<path d="M132.217 49.2599C132.133 49.0911 132.048 48.9224 132.048 48.7536C132.048 48.5849 132.133 48.4161 132.217 48.2474C132.301 48.0786 132.47 48.0786 132.724 48.0786C132.892 48.0786 133.061 48.163 133.23 48.2474C133.315 48.4161 133.399 48.5849 133.399 48.7536C133.399 48.9224 133.315 49.0911 133.23 49.2599C133.146 49.4286 132.977 49.4286 132.724 49.4286C132.47 49.513 132.301 49.4286 132.217 49.2599ZM132.133 55.9255V50.5255C132.133 50.4411 132.133 50.4411 132.217 50.4411H132.977C133.061 50.4411 133.061 50.4411 133.061 50.5255V55.9255C133.061 56.0099 133.061 56.0099 132.977 56.0099H132.217C132.217 56.0099 132.133 56.0099 132.133 55.9255Z" fill="white"/>
<path d="M134.581 55.6726C134.243 55.4194 134.159 54.9976 134.159 54.5757V54.4913C134.159 54.4069 134.159 54.4069 134.243 54.4069H135.003C135.088 54.4069 135.088 54.4069 135.088 54.4913V54.5757C135.088 54.7444 135.172 54.9132 135.341 55.0819C135.51 55.2507 135.679 55.2507 135.847 55.2507C136.016 55.2507 136.185 55.1663 136.354 55.0819C136.523 54.9976 136.523 54.7444 136.523 54.5757C136.523 54.4069 136.438 54.2382 136.354 54.1538C136.27 54.0694 136.185 53.9851 136.016 53.9007C135.932 53.8163 135.679 53.7319 135.425 53.6476C135.172 53.5632 134.919 53.3944 134.75 53.3101C134.581 53.2257 134.412 53.0569 134.243 52.8038C134.074 52.5507 134.074 52.2976 134.074 51.9601C134.074 51.4538 134.243 51.0319 134.497 50.7788C134.834 50.5257 135.172 50.3569 135.679 50.3569C136.185 50.3569 136.607 50.5257 136.861 50.7788C137.198 51.0319 137.283 51.4538 137.283 51.9601C137.283 52.0444 137.283 52.0444 137.198 52.0444H136.438C136.354 52.0444 136.354 52.0444 136.354 51.9601V51.8757C136.354 51.7069 136.27 51.5382 136.185 51.3694C136.016 51.2007 135.847 51.2007 135.679 51.2007C135.425 51.2007 135.256 51.2851 135.172 51.3694C135.088 51.5382 135.003 51.7069 135.003 51.8757C135.003 52.0444 135.003 52.1288 135.088 52.2976C135.172 52.4663 135.256 52.4663 135.425 52.5507C135.51 52.6351 135.763 52.7194 136.016 52.8038C136.27 52.9726 136.523 53.0569 136.692 53.2257C136.861 53.3101 137.029 53.4788 137.198 53.7319C137.367 53.9851 137.452 54.2382 137.452 54.5757C137.452 55.0819 137.283 55.4194 136.945 55.7569C136.607 56.0101 136.185 56.1788 135.679 56.1788C135.341 56.0944 134.919 55.9257 134.581 55.6726Z" fill="white"/>
<path d="M140.322 51.1157H139.562C139.562 51.1157 139.562 51.1157 139.562 51.2001V54.322C139.562 54.6595 139.647 54.8282 139.731 54.9126C139.816 54.997 139.985 55.0813 140.153 55.0813H140.238C140.322 55.0813 140.322 55.0813 140.322 55.1657V55.8407C140.322 55.9251 140.322 55.9251 140.238 55.9251H139.9C139.478 55.9251 139.14 55.8407 138.887 55.672C138.634 55.5032 138.549 55.1657 138.549 54.6595V51.2001V51.1157H138.127C138.043 51.1157 138.043 51.1157 138.043 51.0313V50.5251C138.043 50.4407 138.043 50.4407 138.127 50.4407H138.549C138.549 50.4407 138.549 50.4407 138.549 50.3563V49.0907C138.549 49.0063 138.549 49.0063 138.634 49.0063H139.394C139.478 49.0063 139.478 49.0063 139.478 49.0907V50.3563V50.4407H140.238C140.322 50.4407 140.322 50.4407 140.322 50.5251V51.1157C140.407 51.1157 140.491 51.1157 140.322 51.1157Z" fill="white"/>
<path d="M143.7 50.4413C143.784 50.4413 143.784 50.5257 143.784 50.6101L143.615 51.4538C143.615 51.5382 143.531 51.5382 143.531 51.5382C143.446 51.5382 143.362 51.4538 143.277 51.4538C143.277 51.4538 143.193 51.4538 143.109 51.4538C142.855 51.4538 142.686 51.6226 142.602 51.7913C142.433 52.0444 142.349 52.2976 142.349 52.6351V55.8413C142.349 55.9257 142.349 55.9257 142.264 55.9257H141.504C141.42 55.9257 141.42 55.9257 141.42 55.8413V50.5257C141.42 50.4413 141.42 50.4413 141.504 50.4413H142.264C142.349 50.4413 142.349 50.4413 142.349 50.5257V51.2007C142.518 50.6944 142.855 50.3569 143.362 50.3569C143.446 50.3569 143.615 50.3569 143.7 50.4413Z" fill="white"/>
<path d="M144.544 49.2599C144.459 49.0911 144.375 48.9224 144.375 48.7536C144.375 48.5849 144.459 48.4161 144.544 48.2474C144.628 48.0786 144.797 48.0786 145.05 48.0786C145.219 48.0786 145.388 48.163 145.557 48.2474C145.641 48.4161 145.726 48.5849 145.726 48.7536C145.726 48.9224 145.641 49.0911 145.557 49.2599C145.472 49.4286 145.304 49.4286 145.05 49.4286C144.797 49.513 144.628 49.4286 144.544 49.2599ZM144.544 55.9255V50.5255C144.544 50.4411 144.544 50.4411 144.628 50.4411H145.388C145.472 50.4411 145.472 50.4411 145.472 50.5255V55.9255C145.472 56.0099 145.472 56.0099 145.388 56.0099H144.628C144.544 56.0099 144.544 56.0099 144.544 55.9255Z" fill="white"/>
<path d="M149.778 50.7788C150.032 51.1163 150.201 51.5382 150.201 52.0444V54.3226C150.201 54.8288 150.032 55.2507 149.778 55.5882C149.525 55.9257 149.187 56.0944 148.681 56.0944C148.512 56.0944 148.343 56.0944 148.174 56.0101C148.005 55.9257 147.837 55.8413 147.752 55.6726V55.8413C147.752 55.9257 147.752 55.9257 147.668 55.9257H146.908C146.823 55.9257 146.823 55.9257 146.823 55.8413V48.3319C146.823 48.2476 146.823 48.2476 146.908 48.2476H147.668C147.752 48.2476 147.752 48.2476 147.752 48.3319V50.6101C147.752 50.6101 147.752 50.6101 147.837 50.6101C148.09 50.3569 148.428 50.1882 148.765 50.1882C149.187 50.2726 149.525 50.4413 149.778 50.7788ZM148.934 51.4538C148.765 51.2851 148.596 51.2007 148.343 51.2007C148.09 51.2007 147.921 51.2851 147.837 51.4538C147.668 51.6226 147.668 51.8757 147.668 52.1288V54.3226C147.668 54.5757 147.752 54.8288 147.837 54.9976C148.005 55.1663 148.174 55.2507 148.343 55.2507C148.596 55.2507 148.765 55.1663 148.934 54.9976C149.103 54.8288 149.187 54.5757 149.187 54.3226V52.1288C149.187 51.8757 149.103 51.6226 148.934 51.4538Z" fill="white"/>
<path d="M153.747 50.3569H154.507C154.591 50.3569 154.591 50.3569 154.591 50.4413V55.8413C154.591 55.9257 154.591 55.9257 154.507 55.9257H153.747C153.662 55.9257 153.662 55.9257 153.662 55.8413V55.5882C153.493 55.9257 153.156 56.0944 152.649 56.0944C152.227 56.0944 151.889 55.9257 151.636 55.6725C151.383 55.4194 151.214 54.9976 151.214 54.4069V50.5257C151.214 50.4413 151.214 50.4413 151.298 50.4413H152.058C152.142 50.4413 152.142 50.4413 152.142 50.5257V54.2382C152.142 54.9132 152.396 55.1663 152.818 55.1663C153.071 55.1663 153.24 55.0819 153.409 54.9132C153.578 54.7444 153.578 54.4913 153.578 54.1538V50.5257C153.578 50.4413 153.662 50.3569 153.747 50.3569Z" fill="white"/>
<path d="M157.715 51.1157H156.955C156.955 51.1157 156.955 51.1157 156.955 51.2001V54.322C156.955 54.6595 157.039 54.8282 157.124 54.9126C157.208 54.997 157.377 55.0813 157.546 55.0813H157.63C157.715 55.0813 157.715 55.0813 157.715 55.1657V55.8407C157.715 55.9251 157.715 55.9251 157.63 55.9251H157.293C156.871 55.9251 156.533 55.8407 156.28 55.672C156.026 55.5032 155.942 55.1657 155.942 54.6595V51.2001V51.1157H155.52C155.435 51.1157 155.435 51.1157 155.435 51.0313V50.5251C155.435 50.4407 155.435 50.4407 155.52 50.4407H155.942C155.942 50.4407 155.942 50.4407 155.942 50.3563V49.0907C155.942 49.0063 155.942 49.0063 156.026 49.0063H156.786C156.871 49.0063 156.871 49.0063 156.871 49.0907V50.3563V50.4407H157.63C157.715 50.4407 157.715 50.4407 157.715 50.5251V51.1157C157.799 51.1157 157.799 51.1157 157.715 51.1157Z" fill="white"/>
<path d="M158.643 49.2599C158.559 49.0911 158.474 48.9224 158.474 48.7536C158.474 48.5849 158.559 48.4161 158.643 48.2474C158.728 48.0786 158.897 48.0786 159.15 48.0786C159.319 48.0786 159.488 48.163 159.657 48.2474C159.741 48.4161 159.825 48.5849 159.825 48.7536C159.825 48.9224 159.741 49.0911 159.657 49.2599C159.572 49.4286 159.403 49.4286 159.15 49.4286C158.981 49.513 158.812 49.4286 158.643 49.2599ZM158.643 55.9255V50.5255C158.643 50.4411 158.643 50.4411 158.728 50.4411H159.488C159.572 50.4411 159.572 50.4411 159.572 50.5255V55.9255C159.572 56.0099 159.572 56.0099 159.488 56.0099H158.728C158.728 56.0099 158.643 56.0099 158.643 55.9255Z" fill="white"/>
<path d="M161.176 55.6726C160.839 55.3351 160.67 54.9132 160.67 54.4069V52.1288C160.67 51.6226 160.839 51.2007 161.176 50.8632C161.514 50.5257 161.936 50.3569 162.443 50.3569C162.949 50.3569 163.456 50.5257 163.709 50.8632C164.047 51.2007 164.216 51.6226 164.216 52.1288V54.4069C164.216 54.9132 164.047 55.3351 163.709 55.6726C163.372 56.0101 162.949 56.1788 162.443 56.1788C161.936 56.0944 161.514 55.9257 161.176 55.6726ZM163.034 54.9132C163.203 54.7444 163.287 54.4913 163.287 54.2382V52.0444C163.287 51.7913 163.203 51.5382 163.034 51.3694C162.865 51.2007 162.696 51.1163 162.443 51.1163C162.19 51.1163 162.021 51.2007 161.852 51.3694C161.683 51.5382 161.599 51.7913 161.599 52.0444V54.2382C161.599 54.4913 161.683 54.7444 161.852 54.9132C162.021 55.0819 162.19 55.1663 162.443 55.1663C162.696 55.1663 162.865 55.0819 163.034 54.9132Z" fill="white"/>
<path d="M168.437 50.7788C168.691 51.1163 168.775 51.5382 168.775 52.1288V55.9257C168.775 56.0101 168.775 56.0101 168.691 56.0101H167.931C167.846 56.0101 167.846 56.0101 167.846 55.9257V52.2132C167.846 51.8757 167.762 51.6226 167.678 51.4538C167.593 51.2851 167.34 51.2007 167.171 51.2007C166.918 51.2007 166.749 51.2851 166.664 51.4538C166.496 51.6226 166.496 51.8757 166.411 52.1288C166.411 52.2132 166.411 52.2132 166.411 52.2132V55.9257C166.411 56.0101 166.411 56.0101 166.327 56.0101H165.567C165.482 56.0101 165.482 56.0101 165.482 55.9257V50.5257C165.482 50.4413 165.482 50.4413 165.567 50.4413H166.327C166.411 50.4413 166.411 50.4413 166.411 50.5257V50.8632C166.411 50.8632 166.411 50.8632 166.496 50.8632C166.749 50.5257 167.087 50.357 167.593 50.357C167.846 50.2726 168.184 50.4413 168.437 50.7788Z" fill="white"/>
<path d="M169.704 55.8409C169.619 55.6722 169.535 55.5034 169.535 55.3347C169.535 55.1659 169.619 54.9972 169.704 54.8284C169.788 54.6597 169.957 54.6597 170.21 54.6597C170.379 54.6597 170.548 54.744 170.717 54.8284C170.801 54.9972 170.886 55.1659 170.886 55.3347C170.886 55.5034 170.801 55.6722 170.717 55.8409C170.632 56.0097 170.464 56.0097 170.21 56.0097C169.957 56.0097 169.788 55.9253 169.704 55.8409Z" fill="white"/>
<path d="M219.348 57.0224C219.348 56.938 219.348 56.938 219.348 57.0224L219.602 54.4911C219.602 54.4067 219.602 54.4067 219.686 54.4067H220.362C220.446 54.4067 220.446 54.4067 220.446 54.4911L219.939 56.938C219.939 57.0224 219.855 57.0224 219.855 57.0224H219.348C219.433 57.0224 219.433 57.0224 219.348 57.0224Z" fill="white"/>
<path d="M222.81 55.5882C222.472 55.2507 222.303 54.7444 222.303 54.1538V53.9007C222.303 53.8163 222.303 53.8163 222.388 53.8163H223.148C223.232 53.8163 223.232 53.8163 223.232 53.9007V54.1538C223.232 54.4913 223.317 54.7444 223.485 54.9976C223.654 55.1663 223.823 55.3351 224.076 55.3351C224.33 55.3351 224.499 55.2507 224.667 55.0819C224.836 54.9132 224.921 54.6601 224.921 54.3226C224.921 54.0694 224.836 53.9007 224.752 53.7319C224.667 53.5632 224.583 53.3944 224.414 53.3101C224.245 53.1413 224.076 52.9726 223.739 52.7194C223.401 52.4663 223.063 52.2132 222.894 51.9601C222.726 51.7913 222.557 51.5382 222.388 51.2007C222.219 50.9476 222.219 50.6101 222.219 50.1882C222.219 49.5976 222.388 49.0913 222.726 48.7538C223.063 48.4163 223.485 48.2476 224.076 48.2476C224.667 48.2476 225.09 48.4163 225.427 48.8382C225.765 49.1757 225.934 49.6819 225.934 50.3569V50.5257C225.934 50.6101 225.934 50.6101 225.849 50.6101H225.09C225.005 50.6101 225.005 50.6101 225.005 50.5257V50.1882C225.005 49.8507 224.921 49.5976 224.752 49.3444C224.583 49.1757 224.414 49.0069 224.161 49.0069C223.908 49.0069 223.739 49.0913 223.57 49.2601C223.401 49.4288 223.317 49.6819 223.317 50.0194C223.317 50.3569 223.401 50.5257 223.57 50.7788C223.739 50.9476 223.992 51.2851 224.499 51.6226C224.921 51.9601 225.258 52.2132 225.427 52.4663C225.681 52.6351 225.765 52.8882 225.934 53.1413C226.018 53.3944 226.103 53.6476 226.103 53.9851C226.103 54.5757 225.934 55.0819 225.596 55.5038C225.258 55.8413 224.836 56.0944 224.245 56.0944C223.654 56.0944 223.148 56.0101 222.81 55.5882Z" fill="white"/>
<path d="M227.369 55.5882C227.032 55.2507 226.863 54.7444 226.863 54.1538V50.1882C226.863 49.5976 227.032 49.0913 227.369 48.7538C227.707 48.4163 228.129 48.2476 228.72 48.2476C229.311 48.2476 229.733 48.4163 230.071 48.7538C230.409 49.0913 230.578 49.5976 230.578 50.1882V50.3569C230.578 50.4413 230.578 50.4413 230.493 50.4413L229.733 50.5257C229.649 50.5257 229.649 50.5257 229.649 50.4413V50.1882C229.649 49.8507 229.564 49.6819 229.396 49.4288C229.227 49.2601 229.058 49.1757 228.72 49.1757C228.467 49.1757 228.214 49.2601 228.045 49.4288C227.876 49.5976 227.791 49.8507 227.791 50.1882V54.2382C227.791 54.5757 227.876 54.7444 228.045 54.9976C228.214 55.1663 228.382 55.2507 228.72 55.2507C228.973 55.2507 229.227 55.1663 229.396 54.9976C229.564 54.8288 229.649 54.5757 229.649 54.2382V53.9007C229.649 53.8163 229.649 53.8163 229.733 53.8163L230.493 53.9007C230.578 53.9007 230.578 53.9007 230.578 53.9851V54.1538C230.578 54.7444 230.409 55.2507 230.071 55.5882C229.733 55.9257 229.227 56.1788 228.72 56.1788C228.129 56.1788 227.707 56.01 227.369 55.5882Z" fill="white"/>
<path d="M173.166 55.5884C172.828 55.2509 172.659 54.7446 172.659 54.154V53.9009C172.659 53.8165 172.659 53.8165 172.743 53.8165H173.588C173.672 53.8165 173.672 53.8165 173.672 53.9009V54.154C173.672 54.4915 173.757 54.7446 173.925 54.9977C174.094 55.1665 174.348 55.3352 174.601 55.3352C174.854 55.3352 175.107 55.2509 175.276 55.0821C175.445 54.9134 175.53 54.6602 175.53 54.3227C175.53 54.0696 175.445 53.9009 175.361 53.7321C175.276 53.5634 175.107 53.3946 175.023 53.3102C174.854 53.1415 174.601 52.9727 174.263 52.7196C173.925 52.4665 173.588 52.2134 173.419 52.0446C173.166 51.8759 172.997 51.6228 172.912 51.3696C172.743 51.1165 172.659 50.779 172.659 50.3571C172.659 49.7665 172.828 49.2603 173.166 48.9228C173.503 48.5853 174.01 48.4165 174.516 48.4165C175.107 48.4165 175.53 48.5853 175.952 49.0071C176.289 49.3446 176.458 49.8509 176.458 50.4415V50.6946C176.458 50.779 176.458 50.779 176.374 50.779H175.53C175.445 50.779 175.445 50.779 175.445 50.6946V50.4415C175.445 50.104 175.361 49.8509 175.192 49.6821C175.023 49.5134 174.77 49.3446 174.516 49.3446C174.263 49.3446 174.094 49.429 173.925 49.5978C173.757 49.7665 173.672 50.0196 173.672 50.3571C173.672 50.6103 173.757 50.8634 173.925 51.1165C174.094 51.2853 174.432 51.6228 174.854 51.9603C175.276 52.2978 175.614 52.5509 175.867 52.7196C176.121 52.8884 176.289 53.1415 176.374 53.3946C176.458 53.6477 176.543 53.9009 176.543 54.2384C176.543 54.829 176.374 55.3352 176.036 55.6727C175.698 56.0102 175.192 56.2634 174.601 56.2634C174.01 56.179 173.503 56.0102 173.166 55.5884Z" fill="white"/>
<path d="M180.764 50.8638C181.017 51.2013 181.186 51.6231 181.186 52.1294V54.4075C181.186 54.9138 181.017 55.3356 180.764 55.6731C180.511 56.0106 180.089 56.1794 179.666 56.1794C179.498 56.1794 179.329 56.1794 179.16 56.095C178.991 56.0106 178.822 55.9263 178.653 55.7575H178.569V58.0356C178.569 58.12 178.569 58.12 178.484 58.12H177.64C177.556 58.12 177.556 58.12 177.556 58.0356V50.6106C177.556 50.5263 177.556 50.5263 177.64 50.5263H178.484C178.569 50.5263 178.569 50.5263 178.569 50.6106V50.7794C178.569 50.7794 178.569 50.7794 178.653 50.7794C178.822 50.6106 178.991 50.5263 179.16 50.5263C179.329 50.4419 179.498 50.4419 179.666 50.4419C180.089 50.4419 180.426 50.6106 180.764 50.8638ZM179.92 51.5388C179.751 51.37 179.582 51.2856 179.329 51.2856C179.075 51.2856 178.907 51.37 178.738 51.5388C178.569 51.7075 178.484 51.9606 178.484 52.2138V54.3231C178.484 54.5763 178.569 54.8294 178.738 54.9981C178.907 55.1669 179.075 55.2513 179.329 55.2513C179.582 55.2513 179.751 55.1669 179.92 54.9981C180.089 54.8294 180.173 54.5763 180.173 54.3231V52.2138C180.089 51.9606 180.089 51.7075 179.92 51.5388Z" fill="white"/>
<path d="M185.324 50.9481C185.661 51.2856 185.83 51.7075 185.83 52.2981V56.0106C185.83 56.095 185.83 56.095 185.746 56.095H184.901C184.817 56.095 184.817 56.095 184.817 56.0106V55.7575C184.564 56.095 184.226 56.1794 183.719 56.1794C183.297 56.1794 182.96 56.095 182.622 55.8419C182.284 55.5888 182.115 55.1669 182.115 54.5763C182.115 53.9013 182.284 53.4794 182.706 53.1419C183.128 52.8044 183.551 52.72 184.226 52.72H184.901C184.901 52.72 184.986 52.72 184.986 52.6356V52.2981C184.986 51.9606 184.901 51.7075 184.733 51.5388C184.564 51.37 184.395 51.2856 184.142 51.2856C183.973 51.2856 183.804 51.37 183.719 51.4544C183.635 51.5388 183.551 51.7075 183.466 51.9606C183.466 52.045 183.466 52.045 183.382 52.045H182.453C182.369 52.045 182.369 52.045 182.369 51.9606C182.369 51.4544 182.622 51.1169 182.96 50.8638C183.297 50.6106 183.719 50.4419 184.226 50.4419C184.564 50.4419 184.986 50.6106 185.324 50.9481ZM184.479 54.9981C184.648 54.8294 184.733 54.5763 184.733 54.3231V53.5638C184.733 53.5638 184.733 53.4794 184.648 53.4794H184.057C183.804 53.4794 183.551 53.5638 183.382 53.7325C183.213 53.9013 183.128 54.1544 183.128 54.4075C183.128 54.6606 183.213 54.8294 183.297 54.9981C183.466 55.1669 183.635 55.1669 183.804 55.1669C184.057 55.2513 184.31 55.1669 184.479 54.9981Z" fill="white"/>
<path d="M189.46 50.5263C189.545 50.5263 189.545 50.6106 189.545 50.695L189.376 51.5388C189.376 51.6231 189.291 51.6231 189.207 51.6231C189.123 51.6231 189.038 51.5388 188.869 51.5388C188.785 51.5388 188.785 51.5388 188.7 51.5388C188.447 51.5388 188.278 51.7075 188.109 51.8763C187.94 52.1294 187.856 52.3825 187.856 52.72V55.9263C187.856 56.0106 187.856 56.0106 187.772 56.0106H186.927C186.843 56.0106 186.843 56.0106 186.843 55.9263V50.6106C186.843 50.5263 186.843 50.5263 186.927 50.5263H187.772C187.856 50.5263 187.856 50.5263 187.856 50.6106V51.2856C188.109 50.7794 188.447 50.4419 188.869 50.4419C189.122 50.4419 189.291 50.5263 189.46 50.5263Z" fill="white"/>
<path d="M192.246 51.2851H191.487C191.487 51.2851 191.402 51.2851 191.402 51.3694V54.4069C191.402 54.6601 191.487 54.9132 191.571 54.9976C191.655 55.0819 191.824 55.1663 192.078 55.1663H192.162C192.247 55.1663 192.246 55.1663 192.246 55.2507V55.9257C192.246 56.0101 192.247 56.0101 192.162 56.0101H191.824C191.318 56.0101 190.98 55.9257 190.727 55.7569C190.473 55.5882 190.389 55.2507 190.389 54.7444V51.2851C190.389 51.2851 190.389 51.2007 190.305 51.2007H189.967C189.882 51.2007 189.882 51.2007 189.882 51.1163V50.6101C189.882 50.5257 189.882 50.5257 189.967 50.5257H190.389C190.389 50.5257 190.473 50.5257 190.473 50.4413V49.1757C190.473 49.0913 190.473 49.0913 190.558 49.0913H191.318C191.402 49.0913 191.402 49.0913 191.402 49.1757V50.4413C191.402 50.4413 191.402 50.5257 191.487 50.5257H192.246C192.331 50.5257 192.331 50.5257 192.331 50.6101V51.1163C192.331 51.2007 192.331 51.2851 192.246 51.2851Z" fill="white"/>
<path d="M196.299 50.9481C196.637 51.2856 196.806 51.7075 196.806 52.2981V56.0106C196.806 56.095 196.806 56.095 196.721 56.095H195.877C195.793 56.095 195.793 56.095 195.793 56.0106V55.7575C195.539 56.095 195.202 56.1794 194.695 56.1794C194.273 56.1794 193.935 56.095 193.598 55.8419C193.26 55.5888 193.091 55.1669 193.091 54.5763C193.091 53.9013 193.26 53.4794 193.682 53.1419C194.104 52.8044 194.526 52.72 195.202 52.72H195.877C195.877 52.72 195.962 52.72 195.962 52.6356V52.2981C195.962 51.9606 195.877 51.7075 195.708 51.5388C195.539 51.37 195.371 51.2856 195.117 51.2856C194.948 51.2856 194.78 51.37 194.695 51.4544C194.611 51.5388 194.526 51.7075 194.442 51.9606C194.442 52.045 194.442 52.045 194.357 52.045H193.344C193.26 52.045 193.26 52.045 193.26 51.9606C193.26 51.4544 193.513 51.1169 193.851 50.8638C194.189 50.6106 194.611 50.4419 195.117 50.4419C195.539 50.4419 195.962 50.6106 196.299 50.9481ZM195.455 54.9981C195.624 54.8294 195.708 54.5763 195.708 54.3231V53.5638C195.708 53.5638 195.708 53.4794 195.624 53.4794H195.033C194.78 53.4794 194.526 53.5638 194.357 53.7325C194.189 53.9013 194.104 54.1544 194.104 54.4075C194.104 54.6606 194.189 54.8294 194.273 54.9981C194.442 55.1669 194.611 55.1669 194.78 55.1669C195.033 55.2513 195.286 55.1669 195.455 54.9981Z" fill="white"/>
<path d="M205.671 50.9479C205.924 51.2854 206.093 51.7073 206.093 52.2136V54.4917C206.093 54.9979 205.924 55.4198 205.671 55.7573C205.418 56.0948 204.995 56.2636 204.573 56.2636C204.404 56.2636 204.236 56.2636 204.067 56.1792C203.898 56.0948 203.729 56.0104 203.56 55.9261V56.0948C203.56 56.1792 203.56 56.1792 203.476 56.1792H202.631C202.547 56.1792 202.547 56.1792 202.547 56.0948V48.6698C202.547 48.5854 202.547 48.5854 202.631 48.5854H203.476C203.56 48.5854 203.56 48.5854 203.56 48.6698V50.9479C203.56 50.9479 203.56 50.9479 203.645 50.9479C203.898 50.6948 204.236 50.5261 204.658 50.5261C204.995 50.4417 205.418 50.6104 205.671 50.9479ZM204.827 51.6229C204.658 51.4542 204.489 51.3698 204.236 51.3698C203.982 51.3698 203.813 51.4542 203.645 51.6229C203.476 51.7917 203.391 52.0448 203.391 52.2979V54.4073C203.391 54.6604 203.476 54.9136 203.645 55.0823C203.813 55.2511 203.982 55.3354 204.236 55.3354C204.489 55.3354 204.658 55.2511 204.827 55.0823C204.995 54.9136 205.08 54.6604 205.08 54.4073V52.2979C205.08 51.9604 204.995 51.7917 204.827 51.6229Z" fill="white"/>
<path d="M209.808 50.5259H210.652C210.737 50.5259 210.737 50.5259 210.737 50.6103V55.9259C210.737 56.0102 210.737 56.0102 210.652 56.0102H209.808C209.723 56.0102 209.723 56.0102 209.723 55.9259V55.5884C209.47 55.9259 209.132 56.0946 208.71 56.0946C208.288 56.0946 207.95 55.9259 207.613 55.6727C207.359 55.4196 207.191 54.9977 207.191 54.4915V50.6103C207.191 50.5259 207.191 50.5259 207.275 50.5259H208.119C208.204 50.5259 208.204 50.5259 208.204 50.6103V54.3227C208.204 54.9134 208.457 55.2509 208.964 55.2509C209.217 55.2509 209.386 55.1665 209.555 54.9977C209.723 54.829 209.723 54.5759 209.723 54.2384V50.6103C209.723 50.6103 209.723 50.5259 209.808 50.5259Z" fill="white"/>
<path d="M214.452 50.6103C214.536 50.6103 214.536 50.6946 214.536 50.779L214.367 51.6228C214.367 51.7071 214.283 51.7071 214.198 51.7071C214.114 51.7071 214.029 51.6228 213.861 51.6228C213.776 51.6228 213.776 51.6228 213.692 51.6228C213.438 51.6228 213.27 51.7915 213.101 51.9603C212.932 52.2134 212.847 52.4665 212.847 52.804V56.0102C212.847 56.0946 212.847 56.0946 212.763 56.0946H211.919C211.834 56.0946 211.834 56.0946 211.834 56.0102V50.6946C211.834 50.6103 211.834 50.6103 211.919 50.6103H212.763C212.847 50.6103 212.847 50.6103 212.847 50.6946V51.3696C213.101 50.8634 213.438 50.5259 213.861 50.5259C214.198 50.5259 214.367 50.5259 214.452 50.6103Z" fill="white"/>
<path d="M217.745 50.5263H218.589C218.673 50.5263 218.673 50.5263 218.673 50.6106V55.9263C218.673 56.6856 218.504 57.2763 218.167 57.6981C217.829 58.12 217.238 58.2888 216.394 58.2888H216.056C215.972 58.2888 215.972 58.2044 215.972 58.2044V57.5294C215.972 57.445 215.972 57.445 216.056 57.445C216.647 57.445 217.069 57.3606 217.322 57.1075C217.576 56.8544 217.66 56.4325 217.66 55.9263V55.5888C217.407 55.9263 217.069 56.095 216.563 56.095C216.056 56.095 215.718 55.9263 215.465 55.5888C215.212 55.2513 215.043 54.8294 215.043 54.3231V52.2138C215.043 51.7075 215.212 51.2856 215.465 50.9481C215.718 50.6106 216.056 50.4419 216.563 50.4419C217.069 50.4419 217.407 50.6106 217.66 50.9481V50.695C217.66 50.6106 217.66 50.5263 217.745 50.5263ZM217.407 54.9138C217.576 54.745 217.66 54.5763 217.66 54.2388V52.2138C217.66 51.9606 217.576 51.7075 217.407 51.5388C217.238 51.37 217.069 51.2856 216.816 51.2856C216.563 51.2856 216.394 51.37 216.225 51.5388C216.056 51.7075 215.972 51.9606 215.972 52.2138V54.2388C215.972 54.4919 216.056 54.745 216.225 54.9138C216.394 55.0825 216.563 55.1669 216.816 55.1669C217.069 55.1669 217.322 55.0825 217.407 54.9138Z" fill="white"/>
<path d="M200.943 50.9477C201.196 51.2852 201.28 51.707 201.28 52.2133V55.9258C201.28 56.0102 201.28 56.0102 201.196 56.0102H200.352C200.267 56.0102 200.267 56.0102 200.267 55.9258V52.2977C200.267 51.9602 200.183 51.7914 200.098 51.6227C199.93 51.4539 199.761 51.3695 199.592 51.3695C199.339 51.3695 199.17 51.4539 199.001 51.6227C198.832 51.7914 198.832 52.0445 198.748 52.2977C198.748 52.382 198.748 52.382 198.748 52.382V56.0102C198.748 56.0945 198.748 56.0945 198.663 56.0945H197.819C197.734 56.0945 197.734 56.0945 197.734 56.0102V50.6945C197.734 50.6102 197.734 50.6102 197.819 50.6102H198.663C198.748 50.6102 198.748 50.6102 198.748 50.6945V50.9477C198.748 50.9477 198.748 50.9477 198.832 50.9477C199.085 50.6102 199.423 50.4414 199.93 50.4414C200.352 50.5258 200.689 50.6102 200.943 50.9477Z" fill="white"/>
</svg>
