<svg width="1256" height="1256" viewBox="0 0 1256 1256" fill="none" xmlns="http://www.w3.org/2000/svg">
<path d="M357.598 290.687C355.22 290.687 353.318 290.211 350.941 289.259C342.381 285.453 338.577 275.938 341.906 267.375C343.332 264.044 355.696 235.499 401.822 195.535C408.955 189.35 419.417 190.302 425.599 196.962C431.781 204.099 430.83 214.566 424.172 220.75C384.228 255.481 373.291 280.22 373.291 280.22C369.962 286.881 363.78 290.687 357.598 290.687Z" fill="#414042"/>
<path d="M427.501 1074.26C424.172 1074.26 420.368 1073.31 417.039 1071.41C198.771 936.29 213.513 672.245 241.569 526.663C243.471 516.196 253.933 509.06 264.394 510.963C274.856 512.866 281.989 523.332 280.087 533.799C253.933 669.39 239.667 914.881 437.487 1037.63C446.522 1043.34 449.375 1055.23 443.669 1064.74C440.34 1070.93 434.158 1074.26 427.501 1074.26Z" fill="#414042"/>
<path d="M627.699 0C281.514 0 0 281.648 0 628C0 974.352 281.514 1256 627.699 1256C973.885 1256 1255.4 974.352 1255.4 628C1255.87 281.648 973.885 0 627.699 0ZM627.699 1216.04C578.72 1216.04 531.167 1209.85 485.991 1198.43C476.956 1183.68 468.397 1168.46 461.264 1152.28C450.802 1128.97 442.718 1104.71 437.487 1080.45C448.425 1085.2 459.837 1089.48 471.726 1093.29C538.3 1113.27 602.496 1121.84 663.364 1122.31C670.972 1150.38 684.287 1180.35 706.637 1210.8C680.959 1214.13 654.805 1216.04 627.699 1216.04ZM943.927 887.764C957.241 918.688 974.836 948.185 996.235 975.779C932.989 1028.59 824.569 1073.31 697.602 1079.97C695.7 1054.28 699.029 1028.11 708.064 1001.95C744.204 898.706 857.856 823.061 942.976 812.118C950.108 811.167 957.241 810.691 965.325 810.691C994.333 810.691 1026.67 818.779 1047.12 848.752C1067.56 879.2 1051.4 913.455 1033.8 936.767C1030.95 940.097 1028.57 943.903 1025.24 947.233C1007.65 922.97 992.906 897.755 981.018 871.112C976.738 860.646 964.85 856.364 954.388 860.645C943.927 865.403 939.647 877.773 943.927 887.764ZM752.288 1202.72C729.938 1176.55 714.246 1148.95 705.686 1120.88C841.212 1112.8 953.913 1062.84 1021.44 1006.7C1030.47 1016.69 1039.98 1026.68 1049.97 1036.2C970.556 1118.98 867.842 1177.98 752.288 1202.72ZM1050.92 979.585C1056.63 973.4 1061.86 967.215 1066.14 961.03C1100.85 913.93 1106.08 864.927 1080.4 826.867C1051.4 783.573 1000.99 764.542 937.745 772.155C838.834 785 711.393 869.209 669.546 988.624C660.511 1014.79 654.329 1046.19 656.707 1080.92C601.07 1080.45 543.055 1072.36 483.614 1054.28C465.068 1048.57 447.949 1041.43 430.83 1031.92C425.124 947.233 450.802 858.742 507.39 770.727C573.489 668.439 602.021 575.667 624.846 500.973C658.133 392.976 678.581 327.797 781.295 307.339C945.353 274.988 982.92 415.812 984.347 421.521C986.249 429.133 992.431 435.318 1000.51 436.745C1022.86 441.027 1057.58 456.727 1087.54 471.952C1022.39 491.458 926.332 548.073 914.444 715.539C913.493 726.482 922.052 736.473 932.989 737.424C944.402 738.376 953.913 729.812 954.864 718.87C970.556 502.4 1140.8 502.876 1147.93 502.876C1157.91 503.352 1165.52 497.167 1167.9 488.127C1170.28 479.088 1166.95 470.049 1158.87 465.291C1155.06 462.912 1074.22 414.861 1020.01 400.112C1005.27 359.673 944.878 234.073 773.687 267.852C647.196 293.067 620.566 379.655 586.804 489.079C564.454 560.918 536.873 650.836 473.628 748.842C462.69 765.97 452.704 783.097 444.145 799.749C444.145 799.749 374.717 920.591 392.788 1055.71C398.018 1099.48 410.382 1137.54 424.648 1168.94C426.55 1173.69 428.452 1177.5 430.354 1181.31C203.051 1099.95 40.42 882.53 40.42 627.524C39.9445 304.009 303.864 39.9636 627.699 39.9636C952.011 39.9636 1215.45 304.009 1215.45 628C1215.45 772.155 1163.15 904.891 1076.6 1007.18C1067.56 998.139 1059 989.1 1050.92 979.585Z" fill="#414042"/>
<path d="M373.766 245.968C368.06 243.589 361.878 243.589 356.647 246.444C350.465 249.298 213.988 320.662 196.394 421.523C193.541 438.174 194.016 454.35 197.345 470.05C219.219 492.886 228.73 519.053 233.01 537.132C234.436 539.035 236.338 540.938 237.765 542.841C253.933 554.735 278.185 547.123 278.185 547.123C281.038 546.647 283.891 546.171 286.744 545.22C300.535 529.52 324.787 509.062 360.927 503.829C363.78 500.974 366.633 497.644 369.011 494.313C408.955 443.407 414.186 363.956 384.703 258.813C383.752 253.104 379.473 248.347 373.766 245.968ZM338.102 469.098C324.311 487.177 306.241 496.692 290.549 502.401C265.821 514.295 251.08 493.362 251.08 493.362C237.765 472.429 232.534 451.02 236.338 428.659C246.8 368.713 316.227 318.283 352.843 295.447C370.913 373.471 365.682 432.941 338.102 469.098Z" fill="#414042"/>
<path d="M420.844 470.525C359.976 458.155 310.045 470.049 266.297 516.673C264.87 518.576 261.541 517.625 261.066 515.246C245.849 457.203 205.429 418.667 155.974 401.064C146.939 397.734 136.952 402.015 133.148 410.579C132.197 412.958 108.896 466.243 128.393 516.673C128.868 513.819 129.344 511.44 129.82 509.061C170.715 527.615 193.065 558.064 204.953 584.231C213.988 587.561 223.499 589.94 234.436 592.319C234.912 592.319 235.387 592.319 235.863 592.319L244.898 589.94C247.751 588.988 251.08 589.464 253.933 590.891L271.052 599.455C271.527 599.455 271.527 599.931 272.003 599.931C276.283 600.882 280.562 601.358 284.842 601.834C286.744 601.834 288.171 602.309 290.073 602.309C311.472 582.328 346.186 561.87 395.165 566.152C394.214 569.006 393.263 572.337 392.312 575.191C430.83 541.888 435.11 491.934 435.585 490.031C436.061 480.991 429.879 472.428 420.844 470.525ZM232.058 554.734C199.722 546.646 177.373 532.373 166.435 511.915C154.547 490.031 156.449 464.815 160.253 447.212C160.729 445.309 163.107 444.358 164.533 445.309C220.646 475.758 233.009 530.47 235.863 551.403C236.338 553.306 234.436 555.209 232.058 554.734ZM394.214 507.158C389.459 520.955 380.424 539.034 363.305 551.879C342.857 566.628 314.325 570.434 278.66 564.249C276.283 563.773 275.332 561.394 276.758 559.491C285.793 545.219 323.36 496.691 391.836 503.352C393.739 503.352 395.165 505.255 394.214 507.158Z" fill="#414042"/>
<path d="M404.2 622.765C418.942 611.347 411.333 633.707 418.942 620.386C437.487 588.51 438.914 556.635 438.914 554.732C439.389 544.741 431.781 535.701 421.795 534.274C353.318 522.856 297.681 538.556 251.08 592.316C249.177 594.219 245.849 593.744 245.373 590.889C225.876 527.138 178.799 486.222 123.162 468.619C112.7 465.289 101.763 470.523 97.959 480.513C96.5324 483.368 68.9516 553.78 104.141 611.822C106.994 616.58 97.0079 621.813 100.812 626.095C100.337 617.532 113.651 608.968 114.603 602.307C164.058 618.007 190.687 649.407 204.953 674.622C209.708 675.574 214.464 676.525 219.219 677.477C219.695 677.477 220.17 677.477 221.121 677.477C221.121 677.477 237.765 673.671 241.093 675.098L260.59 684.138C261.066 684.138 261.066 684.613 261.541 684.613C266.296 685.089 271.052 686.041 275.807 686.516C277.234 686.516 278.185 686.516 279.136 686.516C297.681 663.68 333.346 633.232 393.263 632.756L404.2 622.765ZM214.464 635.61C177.848 627.998 152.645 613.25 138.855 590.889C124.113 567.101 125.54 539.032 128.868 519.05C129.344 516.671 131.722 515.719 133.624 516.671C197.345 548.071 213.988 608.492 218.268 631.329C219.219 633.707 216.841 636.086 214.464 635.61ZM393.738 575.665C389.459 591.365 379.948 611.822 360.927 626.571C338.577 643.698 307.192 649.407 266.772 644.174C264.394 643.698 262.968 641.319 264.394 638.941C273.905 622.765 313.849 567.101 390.41 571.383C392.787 571.383 394.214 573.286 393.738 575.665Z" fill="#414042"/>
<path d="M242.996 747.889L264.395 755.026C264.87 755.026 265.346 755.026 265.346 755.026C270.577 755.501 275.808 755.501 280.563 755.501C328.591 755.977 367.109 744.559 395.166 721.247C444.621 680.808 442.243 620.386 442.243 617.532C441.767 607.541 433.208 599.929 422.271 598.977C349.039 593.268 291.5 611.823 246.8 667.011C244.898 668.914 241.569 668.914 240.618 666.059C214.464 606.114 161.205 570.432 100.813 557.111C89.8755 554.732 78.4627 560.441 75.134 569.956C74.183 572.811 50.4065 642.271 92.7286 696.032C118.407 728.383 161.205 746.462 219.695 751.22C220.171 751.22 221.122 751.22 221.597 750.744C222.548 752.171 239.667 746.938 242.996 747.889ZM265.346 711.732C273.905 695.556 311.472 639.417 393.263 637.514C395.641 637.514 397.543 639.417 397.068 641.32C393.739 656.544 385.655 677.001 366.634 692.701C344.284 710.78 311.472 718.868 268.675 716.489C265.821 716.489 264.395 714.111 265.346 711.732ZM216.366 708.401C216.842 710.78 214.94 712.683 212.087 712.683C172.618 707.926 144.561 695.556 128.393 675.098C110.799 653.214 109.848 626.095 111.75 607.065C111.75 604.686 114.603 603.735 116.981 604.211C187.835 629.426 210.184 686.517 216.366 708.401Z" fill="#414042"/>
<path d="M107.47 492.887C103.19 492.887 98.9101 490.508 97.008 486.226C88.924 469.575 87.0219 450.069 90.8261 428.184C91.7772 421.999 97.9591 417.717 104.617 418.669C110.798 419.62 115.078 425.805 114.127 432.465C111.274 449.117 112.225 463.865 118.407 475.759C121.26 481.469 118.882 488.605 113.176 491.459C110.798 492.411 109.372 492.887 107.47 492.887Z" fill="#414042"/>
<path d="M147.414 429.132C140.757 429.132 135.526 423.899 135.526 417.239C135.526 394.402 140.757 372.993 150.743 353.011C153.596 347.302 160.729 344.923 166.435 347.778C172.142 350.632 174.519 357.769 171.666 363.478C163.107 379.654 159.302 397.732 159.302 416.763C159.302 423.899 154.072 429.132 147.414 429.132Z" fill="#414042"/>
<path d="M421.795 561.393C417.991 561.393 414.662 559.49 412.284 556.635C408.48 551.402 409.431 544.265 414.662 539.984C425.599 531.896 436.061 520.002 445.571 504.778C448.9 499.068 456.509 497.641 461.739 500.972C467.446 504.302 468.872 511.914 465.544 517.147C454.131 535.226 441.767 549.023 428.452 559.014C426.55 560.917 424.173 561.393 421.795 561.393Z" fill="#414042"/>
<path d="M421.795 497.643C418.942 497.643 416.089 496.691 413.711 494.313C408.956 490.031 408.481 482.419 413.236 477.661C413.711 477.185 427.502 461.961 438.439 435.794C440.817 429.61 447.949 427.231 453.656 429.61C459.838 431.988 462.215 439.125 459.838 444.834C446.998 474.807 430.83 492.41 430.355 493.361C427.977 496.216 425.124 497.643 421.795 497.643Z" fill="#414042"/>
<path d="M433.207 624.193C429.403 624.193 426.074 622.29 423.697 618.96C419.893 613.726 421.319 606.59 426.55 602.784C427.025 602.308 436.061 595.648 454.131 573.763C458.41 568.529 465.543 568.054 470.774 572.336C476.005 576.617 476.481 583.754 472.201 588.987C452.229 613.726 441.291 621.339 440.34 622.29C437.963 623.717 435.585 624.193 433.207 624.193Z" fill="#414042"/>
<path d="M84.6445 573.287C80.3647 573.287 76.085 570.908 74.1829 567.102C66.5744 552.354 61.3436 536.178 58.9659 519.526C58.0148 512.866 62.2946 507.157 68.952 506.205C75.1339 505.254 81.3158 509.536 82.2669 516.196C84.169 530.469 88.4487 543.79 95.1062 556.16C97.9593 561.869 95.5817 569.005 89.8753 571.86C88.4487 572.811 86.5466 573.287 84.6445 573.287Z" fill="#414042"/>
</svg>
