<svg width="345" height="345" viewBox="0 0 345 345" fill="none" xmlns="http://www.w3.org/2000/svg">
<mask id="path-1-inside-1" fill="white">
<path d="M172.375 0C77.2569 0 0 77.2569 0 172.375C0 267.494 77.2569 344.751 172.375 344.751C267.494 344.751 344.751 267.494 344.751 172.375C344.751 77.2569 267.494 0 172.375 0ZM126.538 316.344C123.525 309.888 121.588 303.217 120.082 296.546C123.094 297.837 126.322 299.128 129.551 299.989C147.843 305.369 165.489 307.736 182.059 307.951C183.996 315.699 187.87 323.876 193.895 332.269C186.794 333.13 179.477 333.775 172.16 333.775C158.818 333.775 145.691 332.054 133.209 329.041C130.842 324.952 128.69 320.648 126.538 316.344ZM259.101 243.607C262.759 251.999 267.709 260.177 273.519 267.924C256.088 282.343 226.391 294.609 191.528 296.546C190.883 289.444 191.959 282.343 194.326 275.026C204.225 246.619 235.429 225.96 258.886 222.947C260.823 222.732 262.759 222.517 264.911 222.517C272.874 222.517 281.697 224.669 287.292 233.062C292.887 241.455 288.368 250.708 283.634 257.164C282.988 258.24 282.127 259.101 281.267 260.177C276.317 253.506 272.228 246.619 269.215 239.303C267.924 236.505 264.696 235.214 261.899 236.505C259.101 237.581 257.81 240.809 259.101 243.607ZM193.68 307.736C230.91 305.369 261.899 291.811 280.406 276.532C282.773 279.33 285.571 281.912 288.153 284.71C266.418 307.306 238.227 323.446 206.377 330.332C200.351 322.8 196.047 315.268 193.68 307.736ZM288.368 268.785C289.875 267.063 291.381 265.342 292.672 263.62C302.141 250.708 303.647 237.366 296.546 226.821C288.583 214.985 274.811 209.605 257.379 211.972C230.264 215.415 195.187 238.657 183.781 271.367C181.199 278.469 179.477 287.077 180.123 296.761C164.843 296.546 148.919 294.394 132.563 289.444C127.614 287.938 122.664 285.786 118.145 283.419C116.638 260.177 123.74 235.859 139.234 211.757C157.311 183.566 165.274 158.172 171.515 137.728C180.768 108.03 186.148 90.1689 214.339 84.5737C259.316 75.7505 269.646 114.271 270.076 115.993C270.507 118.145 272.228 119.651 274.38 120.082C280.621 121.158 290.09 125.462 298.267 129.766C280.406 135.146 253.936 150.64 250.708 196.693C250.493 199.706 252.86 202.503 255.873 202.719C258.886 202.934 261.683 200.567 261.899 197.554C266.203 138.159 312.901 138.374 314.838 138.374C317.635 138.589 319.572 136.867 320.218 134.285C320.863 131.918 319.787 129.335 317.635 128.044C316.559 127.398 294.394 114.271 279.545 110.182C275.456 98.9921 258.886 64.5601 211.972 74.0289C177.325 80.9153 170.008 104.587 160.539 134.715C154.514 154.514 146.767 179.047 129.551 205.947C126.538 210.681 123.74 215.415 121.373 219.935C120.942 214.124 119.436 210.035 119.436 209.605C118.575 207.023 115.778 205.516 112.98 206.162C97.4857 209.605 87.8017 216.491 81.9913 223.593C80.0545 225.96 78.5481 228.543 77.4721 231.34C74.6745 222.517 72.7377 213.048 71.8769 203.149C73.1681 203.149 74.6745 203.364 75.9657 203.364C88.2321 203.364 98.1313 200.136 105.448 193.465C118.145 181.844 117.499 164.628 117.499 163.983C117.284 161.185 115.132 159.033 112.334 158.603C92.9665 157.096 80.4849 162.691 72.7377 169.793C73.5985 163.337 74.6745 156.881 76.1809 150.21C83.0673 148.919 93.3969 145.475 101.144 135.791C112.119 121.803 113.626 100.068 105.448 71.2312C105.018 69.7248 103.942 68.2185 102.22 67.5729C100.714 66.9272 98.9921 66.9273 97.4857 67.788C95.9793 68.6488 58.3192 88.0169 53.5848 115.778C51.648 127.398 55.5216 138.589 64.9904 148.919C63.4841 155.59 62.408 162.261 61.5472 168.717C55.5216 159.894 45.6224 151.071 29.4824 147.412C26.6848 146.767 23.672 148.488 22.8112 151.071C22.596 151.931 16.5704 171.73 27.5456 186.794C34.2168 195.832 45.192 200.997 60.4712 202.288C61.1168 211.542 62.6232 220.365 64.9904 228.973C56.8128 223.378 45.4072 218.859 30.5584 219.935C27.5456 220.15 25.3936 222.517 25.3936 225.53C25.3936 226.391 25.6088 247.05 40.4576 258.24C49.496 264.911 61.5472 266.633 76.6113 263.19L79.6241 262.544C87.1561 273.95 96.4097 283.203 106.954 290.09C108.461 302.141 111.689 312.471 115.778 321.079C116.423 322.37 116.854 323.446 117.284 324.522C54.876 302.141 10.1144 242.531 10.1144 172.591C10.1144 83.7129 82.4217 11.1904 171.515 11.1904C260.607 11.1904 332.915 83.4977 332.915 172.591C332.915 212.187 318.496 248.556 294.824 276.532C293.103 273.95 290.735 271.367 288.368 268.785ZM85.0041 248.126C85.2193 242.1 87.8017 225.53 110.182 217.783C111.043 222.302 111.258 228.973 107.815 235.214C104.157 242.1 96.8401 247.05 86.0801 250.063C85.6497 249.632 85.2193 248.771 85.0041 248.126ZM92.1057 259.531C99.6377 257.164 105.663 253.936 110.398 249.632C108.03 258.886 106.954 267.494 106.954 275.671C101.359 271.152 96.4097 265.772 91.8905 259.531C92.1057 259.531 92.1057 259.531 92.1057 259.531ZM72.9529 252.645C62.1928 254.797 53.8 253.721 47.9896 249.202C41.3184 244.252 38.9512 236.29 37.8752 230.695C59.6104 231.986 70.3705 248.341 72.9529 252.645ZM83.7129 109.537C80.9153 108.461 77.6873 109.752 76.6113 112.765C73.5984 120.297 71.2312 128.044 69.0792 135.576C65.4208 129.766 64.1296 123.955 64.9904 117.93C67.7881 101.574 86.9409 87.5865 96.8401 81.3457C101.79 102.65 100.498 119.221 92.7513 128.905C88.8777 133.855 83.9281 136.437 79.6241 137.943C81.5609 131.057 83.9281 123.955 86.7257 116.854C88.0169 113.841 86.5105 110.613 83.7129 109.537ZM71.8769 191.959C71.8769 191.528 81.1305 169.363 106.309 169.363C105.663 173.882 103.511 180.338 98.3465 185.072C92.5361 190.452 83.4977 192.819 71.8769 191.959ZM60.256 191.098C49.496 190.022 41.7488 186.363 37.4448 180.338C32.7104 173.667 32.7104 165.274 33.356 159.679C53.5848 167.211 58.9648 186.148 60.256 191.098Z"/>
</mask>
<path d="M172.375 0C77.2569 0 0 77.2569 0 172.375C0 267.494 77.2569 344.751 172.375 344.751C267.494 344.751 344.751 267.494 344.751 172.375C344.751 77.2569 267.494 0 172.375 0ZM126.538 316.344C123.525 309.888 121.588 303.217 120.082 296.546C123.094 297.837 126.322 299.128 129.551 299.989C147.843 305.369 165.489 307.736 182.059 307.951C183.996 315.699 187.87 323.876 193.895 332.269C186.794 333.13 179.477 333.775 172.16 333.775C158.818 333.775 145.691 332.054 133.209 329.041C130.842 324.952 128.69 320.648 126.538 316.344ZM259.101 243.607C262.759 251.999 267.709 260.177 273.519 267.924C256.088 282.343 226.391 294.609 191.528 296.546C190.883 289.444 191.959 282.343 194.326 275.026C204.225 246.619 235.429 225.96 258.886 222.947C260.823 222.732 262.759 222.517 264.911 222.517C272.874 222.517 281.697 224.669 287.292 233.062C292.887 241.455 288.368 250.708 283.634 257.164C282.988 258.24 282.127 259.101 281.267 260.177C276.317 253.506 272.228 246.619 269.215 239.303C267.924 236.505 264.696 235.214 261.899 236.505C259.101 237.581 257.81 240.809 259.101 243.607ZM193.68 307.736C230.91 305.369 261.899 291.811 280.406 276.532C282.773 279.33 285.571 281.912 288.153 284.71C266.418 307.306 238.227 323.446 206.377 330.332C200.351 322.8 196.047 315.268 193.68 307.736ZM288.368 268.785C289.875 267.063 291.381 265.342 292.672 263.62C302.141 250.708 303.647 237.366 296.546 226.821C288.583 214.985 274.811 209.605 257.379 211.972C230.264 215.415 195.187 238.657 183.781 271.367C181.199 278.469 179.477 287.077 180.123 296.761C164.843 296.546 148.919 294.394 132.563 289.444C127.614 287.938 122.664 285.786 118.145 283.419C116.638 260.177 123.74 235.859 139.234 211.757C157.311 183.566 165.274 158.172 171.515 137.728C180.768 108.03 186.148 90.1689 214.339 84.5737C259.316 75.7505 269.646 114.271 270.076 115.993C270.507 118.145 272.228 119.651 274.38 120.082C280.621 121.158 290.09 125.462 298.267 129.766C280.406 135.146 253.936 150.64 250.708 196.693C250.493 199.706 252.86 202.503 255.873 202.719C258.886 202.934 261.683 200.567 261.899 197.554C266.203 138.159 312.901 138.374 314.838 138.374C317.635 138.589 319.572 136.867 320.218 134.285C320.863 131.918 319.787 129.335 317.635 128.044C316.559 127.398 294.394 114.271 279.545 110.182C275.456 98.9921 258.886 64.5601 211.972 74.0289C177.325 80.9153 170.008 104.587 160.539 134.715C154.514 154.514 146.767 179.047 129.551 205.947C126.538 210.681 123.74 215.415 121.373 219.935C120.942 214.124 119.436 210.035 119.436 209.605C118.575 207.023 115.778 205.516 112.98 206.162C97.4857 209.605 87.8017 216.491 81.9913 223.593C80.0545 225.96 78.5481 228.543 77.4721 231.34C74.6745 222.517 72.7377 213.048 71.8769 203.149C73.1681 203.149 74.6745 203.364 75.9657 203.364C88.2321 203.364 98.1313 200.136 105.448 193.465C118.145 181.844 117.499 164.628 117.499 163.983C117.284 161.185 115.132 159.033 112.334 158.603C92.9665 157.096 80.4849 162.691 72.7377 169.793C73.5985 163.337 74.6745 156.881 76.1809 150.21C83.0673 148.919 93.3969 145.475 101.144 135.791C112.119 121.803 113.626 100.068 105.448 71.2312C105.018 69.7248 103.942 68.2185 102.22 67.5729C100.714 66.9272 98.9921 66.9273 97.4857 67.788C95.9793 68.6488 58.3192 88.0169 53.5848 115.778C51.648 127.398 55.5216 138.589 64.9904 148.919C63.4841 155.59 62.408 162.261 61.5472 168.717C55.5216 159.894 45.6224 151.071 29.4824 147.412C26.6848 146.767 23.672 148.488 22.8112 151.071C22.596 151.931 16.5704 171.73 27.5456 186.794C34.2168 195.832 45.192 200.997 60.4712 202.288C61.1168 211.542 62.6232 220.365 64.9904 228.973C56.8128 223.378 45.4072 218.859 30.5584 219.935C27.5456 220.15 25.3936 222.517 25.3936 225.53C25.3936 226.391 25.6088 247.05 40.4576 258.24C49.496 264.911 61.5472 266.633 76.6113 263.19L79.6241 262.544C87.1561 273.95 96.4097 283.203 106.954 290.09C108.461 302.141 111.689 312.471 115.778 321.079C116.423 322.37 116.854 323.446 117.284 324.522C54.876 302.141 10.1144 242.531 10.1144 172.591C10.1144 83.7129 82.4217 11.1904 171.515 11.1904C260.607 11.1904 332.915 83.4977 332.915 172.591C332.915 212.187 318.496 248.556 294.824 276.532C293.103 273.95 290.735 271.367 288.368 268.785ZM85.0041 248.126C85.2193 242.1 87.8017 225.53 110.182 217.783C111.043 222.302 111.258 228.973 107.815 235.214C104.157 242.1 96.8401 247.05 86.0801 250.063C85.6497 249.632 85.2193 248.771 85.0041 248.126ZM92.1057 259.531C99.6377 257.164 105.663 253.936 110.398 249.632C108.03 258.886 106.954 267.494 106.954 275.671C101.359 271.152 96.4097 265.772 91.8905 259.531C92.1057 259.531 92.1057 259.531 92.1057 259.531ZM72.9529 252.645C62.1928 254.797 53.8 253.721 47.9896 249.202C41.3184 244.252 38.9512 236.29 37.8752 230.695C59.6104 231.986 70.3705 248.341 72.9529 252.645ZM83.7129 109.537C80.9153 108.461 77.6873 109.752 76.6113 112.765C73.5984 120.297 71.2312 128.044 69.0792 135.576C65.4208 129.766 64.1296 123.955 64.9904 117.93C67.7881 101.574 86.9409 87.5865 96.8401 81.3457C101.79 102.65 100.498 119.221 92.7513 128.905C88.8777 133.855 83.9281 136.437 79.6241 137.943C81.5609 131.057 83.9281 123.955 86.7257 116.854C88.0169 113.841 86.5105 110.613 83.7129 109.537ZM71.8769 191.959C71.8769 191.528 81.1305 169.363 106.309 169.363C105.663 173.882 103.511 180.338 98.3465 185.072C92.5361 190.452 83.4977 192.819 71.8769 191.959ZM60.256 191.098C49.496 190.022 41.7488 186.363 37.4448 180.338C32.7104 173.667 32.7104 165.274 33.356 159.679C53.5848 167.211 58.9648 186.148 60.256 191.098Z" fill="white" stroke="black" stroke-width="2" mask="url(#path-1-inside-1)"/>
<path d="M112.335 170.438C111.259 170.438 110.183 170.007 109.322 169.362C107.385 167.64 107.17 164.843 108.892 162.906C108.892 162.906 114.272 156.665 118.145 145.69C119.006 143.323 121.588 142.031 123.956 142.892C126.323 143.753 127.614 146.335 126.753 148.703C122.234 161.399 115.993 168.716 115.778 168.931C114.702 170.007 113.626 170.438 112.335 170.438Z" fill="white"/>
<path d="M114.701 217.351C112.764 217.351 110.827 216.06 110.182 214.123C109.536 211.971 110.397 209.819 112.334 208.743C112.979 208.097 115.777 204.439 118.79 190.021C119.22 187.438 121.803 185.932 124.17 186.362C126.752 186.793 128.259 189.375 127.828 191.742C124.6 207.021 120.511 215.629 115.992 216.921C115.562 217.351 115.131 217.351 114.701 217.351Z" fill="white"/>
<path d="M28.6212 156.881C26.6844 156.881 24.7476 155.589 24.3172 153.653C24.102 152.577 21.5196 142.677 28.6212 125.677C29.6973 123.309 32.2797 122.233 34.6469 123.094C37.0141 124.17 38.0901 126.753 37.2293 129.12C31.4188 142.893 33.3557 150.855 33.3557 151.07C34.0013 153.437 32.4949 156.02 30.1277 156.665C29.482 156.881 29.0516 156.881 28.6212 156.881Z" fill="white"/>
<path d="M30.5579 230.911C29.0515 230.911 27.7603 230.265 26.8995 228.974C25.3931 227.037 22.1651 218.429 21.5195 205.087C21.3043 202.504 23.4563 200.352 25.8235 200.352C28.4059 200.352 30.5579 202.289 30.5579 204.656C30.9883 215.416 33.5707 222.303 34.2163 223.809C35.5075 225.746 35.0771 228.543 33.1403 230.05C32.4947 230.695 31.4187 230.911 30.5579 230.911ZM34.2163 223.594C34.2163 223.594 34.4315 223.594 34.2163 223.594C34.4315 223.594 34.2163 223.594 34.2163 223.594Z" fill="white"/>
<path d="M98.1315 79.6238C97.4859 79.6238 96.8403 79.4086 96.4099 79.1934C94.0427 78.1174 92.9667 75.535 94.0427 73.1678C94.4731 72.307 97.9163 64.3446 110.613 53.3694C112.55 51.6478 115.348 51.863 117.069 53.7998C118.791 55.7366 118.576 58.5342 116.639 60.2558C105.664 69.7246 102.651 76.611 102.651 76.611C101.575 78.763 99.8531 79.6238 98.1315 79.6238Z" fill="white"/>
</svg>
