<svg width="208" height="208" viewBox="0 0 208 208" fill="none" xmlns="http://www.w3.org/2000/svg">
<g opacity="0.6">
<path fill-rule="evenodd" clip-rule="evenodd" d="M199.333 104C199.333 156.651 156.651 199.333 104 199.333C51.3489 199.333 8.66675 156.651 8.66675 104C8.66675 51.3489 51.3489 8.66669 104 8.66669C156.651 8.66669 199.333 51.3489 199.333 104ZM26.0001 104C26.0001 147.078 60.9219 182 104 182C147.078 182 182 147.078 182 104C182 60.9218 147.078 26 104 26C60.9219 26 26.0001 60.9218 26.0001 104ZM69.3334 147.332V60.6658C69.3334 53.8587 76.821 49.7087 82.5934 53.3165L151.927 96.6498C157.358 100.044 157.358 107.954 151.927 111.348L82.5934 154.682C76.821 158.29 69.3334 154.14 69.3334 147.332ZM86.6667 76.3031L130.981 104L86.6667 131.696V76.3031Z" fill="white"/>
</g>
</svg>
